<?xml version="1.0" encoding="UTF-8" standalone="no"?>
<!DOCTYPE svg PUBLIC "-//W3C//DTD SVG 1.1//EN" "http://www.w3.org/Graphics/SVG/1.1/DTD/svg11.dtd">
<svg width="100%" height="100%" viewBox="0 0 3002 866" version="1.1" xmlns="http://www.w3.org/2000/svg" xmlns:xlink="http://www.w3.org/1999/xlink" xml:space="preserve" style="fill-rule:evenodd;clip-rule:evenodd;stroke-linejoin:round;stroke-miterlimit:1.41421;">
    <g transform="matrix(-7.42032,-2.11898,2.11898,-7.42032,721.887,896.541)">
        <g>
            <clipPath id="_clip1">
                <path id="SvgjsG1400" d="M52.52,92.279C52.52,92.279 90.434,74.364 90.228,73.643C90.228,73.643 98.533,19.405 97.811,19.611C97.811,19.611 84.437,2.673 59.371,3.202C29.575,3.831 -12.727,21.97 -12.615,22.363L25.384,86.905C25.589,87.626 51.798,92.485 52.52,92.279ZM54.054,49.651L63.388,32.857C63.57,32.529 63.868,32.306 64.202,32.21C64.536,32.115 64.907,32.147 65.235,32.329C65.892,32.694 66.127,33.52 65.762,34.176L57.089,49.783L72.696,58.457C73.353,58.822 73.588,59.647 73.224,60.304C72.859,60.961 72.033,61.196 71.376,60.832L54.582,51.498C53.925,51.133 53.689,50.308 54.054,49.651ZM32.849,41.163L45.913,37.433C46.635,37.227 47.386,37.644 47.592,38.366C47.798,39.089 47.381,39.839 46.659,40.046L33.595,43.776C32.872,43.983 32.122,43.565 31.915,42.843C31.709,42.12 32.126,41.37 32.849,41.163Z" clip-rule="nonzero"/>
            </clipPath>
            <g clip-path="url(#_clip1)">
                <path d="M48.3,88.1C39.8,88.1 31.6,84.4 26,77.5C21.6,72.1 17.7,67.5 14.4,63.7C10.7,59.5 9.1,54 10,48.5C10.9,43 14.1,38.2 19,35.4L58,12.7C63.3,9.6 69.7,9.4 75.2,11.9C80.7,14.5 84.6,19.6 85.6,25.6L90.6,56C91.9,63.9 88,71.7 80.9,75.4C75.8,78.1 68.9,81.4 60.5,85.3C56.6,87.2 52.4,88.1 48.3,88.1Z" style="fill:rgb(0,58,89);fill-rule:nonzero;"/>
            </g>
        </g>
    </g>
    <g id="SvgjsG1401" transform="matrix(27.6436,0,0,27.6436,914.934,31.0325)">
        <path d="M1.3,20L1.3,5.76L10.3,5.76L10.3,7.5L3.1,7.5L3.1,10.84L7.06,10.84L7.06,12.6L3.1,12.6L3.1,20L1.3,20L1.3,20ZM13.22,20L11.5,20L11.5,5.32L13.22,5.32L13.22,20ZM16.96,19.02C16.16,18.24 15.72,17.2 15.72,16.08L15.72,10.84L17.44,10.84L17.44,16.08C17.44,17.42 18.56,18.52 19.96,18.52C21.34,18.52 22.48,17.42 22.48,16.08L22.48,10.84L24.2,10.84L24.2,16.08C24.2,17.2 23.74,18.24 22.94,19.02C22.14,19.8 21.08,20.2 19.96,20.2C18.82,20.2 17.76,19.8 16.96,19.02L16.96,19.02ZM41,11.94C41.84,12.78 42.3,13.88 42.3,15.08L42.3,20L40.58,20L40.58,15.08C40.58,13.58 39.36,12.34 37.88,12.34C36.38,12.34 35.16,13.58 35.16,15.08L35.16,20L33.44,20L33.44,15.08C33.44,13.58 32.24,12.34 30.74,12.34C29.26,12.34 28.04,13.58 28.04,15.08L28.04,20L26.32,20L26.32,10.84L28.04,10.84L28.04,11.72C28.82,11.12 29.76,10.66 30.74,10.66C31.92,10.66 33.04,11.18 33.88,12.02C34.04,12.18 34.18,12.34 34.3,12.52C34.44,12.34 34.58,12.18 34.74,12.02C35.58,11.18 36.7,10.66 37.88,10.66C39.06,10.66 40.16,11.1 41,11.94L41,11.94ZM52.48,14.38C52.62,15.2 52.6,15.66 52.58,15.84L45.52,15.84L45.52,15.88C45.72,17.4 46.86,18.54 48.18,18.56C49,18.52 49.84,18.18 50.42,17.6L51.86,18.46C51.5,18.86 51.1,19.2 50.64,19.48C49.94,19.9 49.08,20.12 48.22,20.16C47.02,20.16 45.92,19.66 45.12,18.76C44.4,17.98 43.96,16.98 43.88,15.88C43.86,15.74 43.86,15.6 43.86,15.46C43.86,15.1 43.9,14.74 43.98,14.38C44.16,13.54 44.56,12.78 45.12,12.16C45.92,11.28 47.04,10.78 48.22,10.78C49.42,10.78 50.52,11.28 51.34,12.16C51.9,12.78 52.32,13.54 52.48,14.38L52.48,14.38ZM45.66,14.4L50.78,14.4L50.76,14.36C50.36,13.18 49.34,12.38 48.22,12.38C47.12,12.38 46.1,13.18 45.68,14.36L45.66,14.4ZM61.8,11.94C62.62,12.78 63.08,13.88 63.08,15.08L63.08,20L61.36,20L61.36,15.08C61.36,13.58 60.16,12.34 58.66,12.34C57.18,12.34 55.96,13.58 55.96,15.08L55.96,20L54.24,20L54.24,10.84L55.96,10.84L55.96,11.72C56.74,11.12 57.68,10.66 58.66,10.66C59.84,10.66 60.96,11.1 61.8,11.94ZM71.16,15.9C71.44,16.3 71.58,16.78 71.58,17.3C71.58,17.82 71.44,18.32 71.14,18.74C70.86,19.16 70.46,19.48 69.92,19.74C69.44,19.96 68.86,20.08 68.28,20.08C67.96,20.08 67.66,20.04 67.34,19.98C66.34,19.78 65.4,19.34 64.6,18.66L65.68,17.48C66.74,18.38 67.64,18.56 68.2,18.56C68.58,18.56 68.94,18.48 69.26,18.34C69.52,18.22 69.98,17.92 69.98,17.3C69.98,16.68 69.44,16.3 68.2,16.08C68.14,16.06 66.62,15.78 66.06,15.46C65.22,14.98 64.78,14.24 64.78,13.32C64.78,12.82 64.94,12.34 65.22,11.92C65.48,11.56 65.84,11.28 66.36,11.04C66.84,10.82 67.36,10.7 67.94,10.7C68.16,10.7 68.4,10.72 68.62,10.74C69.5,10.88 70.36,11.26 71.08,11.84L70.08,13C69.18,12.3 68.4,12.2 68.02,12.2C67.66,12.2 67.32,12.26 67.04,12.4C66.64,12.6 66.38,12.96 66.38,13.32C66.38,13.92 66.86,14.24 68.08,14.5C68.1,14.5 69.74,14.86 70.2,15.12C70.74,15.4 70.94,15.62 71.16,15.9Z" style="fill:rgb(0,58,89);fill-rule:nonzero;"/>
    </g>
</svg>
