<?xml version="1.0" standalone="no"?>
<!DOCTYPE svg PUBLIC "-//W3C//DTD SVG 20010904//EN"
 "http://www.w3.org/TR/2001/REC-SVG-20010904/DTD/svg10.dtd">
<svg version="1.0" xmlns="http://www.w3.org/2000/svg"
 width="512.000000pt" height="512.000000pt" viewBox="0 0 512.000000 512.000000"
 preserveAspectRatio="xMidYMid meet">

<g transform="translate(0.000000,512.000000) scale(0.100000,-0.100000)"
fill="#000000" stroke="none">
<path d="M4046 4723 c-143 -30 -256 -93 -362 -200 -34 -34 -71 -82 -83 -106
-42 -86 -20 -191 54 -255 47 -42 74 -52 136 -52 72 0 111 21 187 98 77 79 129
102 229 102 74 0 115 -15 166 -59 48 -43 71 -106 64 -175 -12 -114 -86 -197
-217 -241 -130 -43 -185 -115 -178 -232 3 -49 10 -71 34 -105 36 -52 71 -73
164 -99 141 -39 246 -114 298 -214 24 -44 27 -62 27 -145 0 -85 -3 -101 -28
-148 -36 -69 -98 -129 -167 -161 -48 -23 -67 -26 -160 -26 -94 1 -111 3 -161
28 -67 32 -127 94 -164 169 -52 103 -119 150 -215 150 -127 0 -220 -98 -220
-230 0 -28 14 -69 47 -133 38 -77 62 -110 133 -180 73 -73 101 -94 180 -132
139 -66 216 -82 390 -81 174 2 258 21 400 91 81 39 109 60 191 142 82 82 102
110 142 191 132 269 91 567 -104 759 -30 30 -78 67 -107 83 -55 32 -82 61 -82
90 0 9 37 54 83 100 89 89 125 148 152 253 57 222 -53 481 -263 618 -37 24
-91 54 -120 66 -119 50 -308 64 -446 34z"/>
<path d="M2280 3949 c-86 -13 -217 -59 -287 -100 -75 -44 -199 -168 -246 -245
-82 -137 -107 -256 -68 -333 60 -116 197 -154 307 -85 47 29 62 52 109 155 31
69 92 131 165 167 47 23 67 27 145 27 75 0 97 -4 135 -24 220 -114 226 -383
15 -676 -84 -117 -149 -187 -580 -628 -214 -219 -395 -408 -402 -420 -19 -34
-16 -108 7 -145 11 -18 34 -41 52 -52 32 -19 52 -20 709 -20 l676 0 44 23
c125 66 145 235 39 331 -21 19 -56 39 -77 45 -23 7 -152 11 -318 11 -291 0
-305 2 -305 42 0 10 81 104 181 210 288 307 419 489 498 692 98 252 95 454
-11 659 -32 62 -63 103 -127 167 -99 99 -185 149 -308 181 -92 23 -261 32
-353 18z"/>
<path d="M235 2691 c-74 -33 -125 -113 -125 -196 0 -16 11 -54 25 -82 30 -65
90 -107 167 -117 29 -4 64 -14 76 -22 53 -35 52 -20 52 -906 0 -813 0 -822 21
-865 79 -163 305 -162 392 1 l22 41 3 975 c2 707 0 990 -8 1028 -14 63 -57
117 -115 143 -35 16 -68 19 -255 19 -187 0 -220 -3 -255 -19z"/>
</g>
</svg>
