<?xml version="1.0" encoding="iso-8859-1"?>
<!-- Generator: Adobe Illustrator 17.1.0, SVG Export Plug-In . SVG Version: 6.00 Build 0)  -->
<!DOCTYPE svg PUBLIC "-//W3C//DTD SVG 1.1//EN" "http://www.w3.org/Graphics/SVG/1.1/DTD/svg11.dtd">
<svg version="1.1" id="Capa_1" xmlns="http://www.w3.org/2000/svg" xmlns:xlink="http://www.w3.org/1999/xlink" x="0px" y="0px"
	 viewBox="0 0 512 512" style="enable-background:new 0 0 512 512;" xml:space="preserve">
<path d="M416.236,152.004c-2.073-0.064-20.535-0.296-30.241,10.703c-8.79,9.961-29.203,25.849-39.195,28.808
	c-5.556-18.331-9.613-30.91-10.893-34.323c-3.022-8.059-7.596-12.982-13.595-14.634c-1.343-0.369-2.673-0.528-3.968-0.54
	c-0.272-1.475-0.575-2.935-0.912-4.378c8.525-0.781,18.364-4.354,24.878-12.729c4.612-5.93,8.56-14.232,12.377-22.262
	c2.439-5.13,6.038-12.699,8.073-15.044l38.804-7.761l-3.138-15.689l-40,8c-7.689,1.537-11.866,10.324-18.189,23.624
	c-3.289,6.917-7.016,14.757-10.557,19.31c-4.585,5.896-13.328,6.944-17.484,6.673c-3.784-8.655-8.818-16.333-14.785-22.681
	c11.006-9.465,17.112-25.894,13.672-38.925c-1.369-5.185-6.138-16.242-22.045-19.332c0.656-0.585,1.485-1.145,2.534-1.669
	c4.84-2.42,17.879-8.44,32.584-13.906C340.203,19.284,352.93,16,359.994,16c11.045,0,27.215,19.13,33.312,28.39
	c2.424,3.694,7.384,4.723,11.078,2.299c3.694-2.424,4.723-7.384,2.299-11.078C404.29,31.966,382.659,0,359.994,0
	c-9.178,0-23.111,3.449-41.412,10.251c-13.329,4.954-27.054,11.038-34.166,14.594c-7.8,3.9-11.417,9.664-12.573,15.155h-31.68
	c-1.306-6.374-5.736-11.728-12.592-15.155c-7.111-3.556-20.836-9.64-34.166-14.594C175.105,3.449,161.172,0,151.994,0
	c-22.665,0-44.296,31.966-46.688,35.61c-2.423,3.692-1.394,8.646,2.296,11.072c3.689,2.424,8.649,1.399,11.078-2.288
	C124.779,35.13,140.949,16,151.994,16c7.064,0,19.792,3.284,35.838,9.249c14.706,5.466,27.745,11.486,32.584,13.906
	c1.039,0.52,1.863,1.074,2.517,1.653c-15.972,3.068-20.755,14.154-22.127,19.348c-3.446,13.053,2.686,29.515,13.727,38.973
	c-5.937,6.328-10.949,13.974-14.721,22.59c-3.676,0.48-12.696-0.449-17.504-6.63c-3.542-4.553-7.269-12.393-10.557-19.31
	c-6.323-13.3-10.5-22.087-18.189-23.624l-40-8l-3.138,15.689l38.804,7.761c2.035,2.345,5.634,9.914,8.073,15.044
	c3.817,8.029,7.765,16.332,12.377,22.262c6.609,8.498,16.471,12.049,24.871,12.757c-0.334,1.436-0.636,2.888-0.907,4.355
	c-1.161,0.041-2.348,0.205-3.545,0.534c-5.999,1.651-10.573,6.575-13.595,14.634c-1.283,3.42-5.353,16.04-10.925,34.428
	c-9.839-2.643-30.678-18.817-39.586-28.912c-9.706-11.001-28.167-10.77-30.241-10.703c-4.407,0.133-7.863,3.807-7.743,8.214
	c0.121,4.406,3.788,7.917,8.204,7.779c3.332-0.085,13.744,0.719,17.783,5.296c5.927,6.718,29.353,28.377,47.015,33.574
	c-9.25,31.219-21.063,73.123-31.308,114.699c-11.19,45.414-18.692,82.875-22.297,111.345c-4.964,39.202-2.688,60.533,7.382,69.164
	c8.273,7.092,15.415,9.176,20.954,9.176c2.264,0,4.261-0.349,5.957-0.846c12.135-3.561,16.813-16.289,17.958-20.105
	c0.806-2.688,4.367-23.17,9.264-52.441c15.214,49.18,15.19,52.073,15.092,62.739c-0.009,1.054-0.02,2.175-0.02,3.403
	c0,4.418,3.582,8,8,8s8-3.582,8-8c0-1.176,0.01-2.249,0.019-3.257c0.133-14.563,0.153-16.802-24.385-95.135
	c-0.239-0.762-0.584-1.461-1.009-2.09c3.262-19.79,6.799-41.424,10.342-63.194c2.294,33.189,8.613,63.744,18.353,88.029
	C216.673,461.658,235.382,480,255.994,480c20.574,0,39.284-18.479,52.684-52.033c9.905-24.802,16.267-55.928,18.459-89.557
	c3.619,22.244,7.24,44.4,10.577,64.645c-0.586,0.743-1.055,1.597-1.355,2.554c-24.538,78.333-24.518,80.571-24.385,95.135
	c0.009,1.008,0.019,2.081,0.019,3.257c0,4.418,3.582,8,8,8s8-3.582,8-8c0-1.229-0.01-2.35-0.02-3.403
	c-0.098-10.729-0.12-13.598,15.366-63.624c4.974,29.745,8.598,50.61,9.412,53.326c1.145,3.816,5.824,16.545,17.958,20.105
	c1.696,0.497,3.691,0.846,5.957,0.846c5.539,0,12.682-2.086,20.954-9.176c11.364-9.74,19.938-39.061-14.916-180.509
	c-10.257-41.628-22.087-83.585-31.342-114.816c17.615-5.395,40.744-26.788,46.628-33.456c4.039-4.578,14.45-5.375,17.759-5.297
	c4.419,0.169,8.105-3.337,8.238-7.754C424.124,155.826,420.653,152.138,416.236,152.004z M196.329,270.179
	c3.779-23.406,7.159-44.41,9.706-60.263c10.163,15.86,25.042,26.786,41.959,29.436v8.869
	C224.114,249.533,206.86,256.883,196.329,270.179z M255.994,224c-17.286,0-32.463-12.25-40.916-30.578
	c12.252,4.272,26.391,6.578,40.916,6.578c5.34,0,10.677-0.308,15.863-0.916c4.388-0.514,7.529-4.488,7.015-8.876
	c-0.515-4.389-4.485-7.527-8.877-7.015c-4.57,0.535-9.28,0.807-14,0.807c-16.531,0-32.313-3.32-44.438-9.348
	c-0.779-0.388-1.591-0.632-2.408-0.751c-0.747-4.479-1.154-9.127-1.154-13.902c0-35.29,21.533-64,48-64
	c18.285,0,34.209,13.706,42.311,33.813c0.14,0.598,0.343,1.191,0.629,1.765c0.04,0.08,0.095,0.149,0.137,0.228
	c3.147,8.512,4.922,18.08,4.922,28.194c0,4.775-0.407,9.423-1.154,13.902c-0.817,0.119-1.63,0.363-2.41,0.75
	c-2.12,1.054-4.386,2.04-6.736,2.93c-4.132,1.565-6.212,6.184-4.647,10.315c1.212,3.199,4.253,5.168,7.483,5.168
	c0.185,0,0.372-0.012,0.558-0.025C288.671,211.581,273.4,224,255.994,224z M216.277,64.24c1.443-5.468,6.698-8.24,15.618-8.24
	h48.099c8.92,0,14.175,2.772,15.618,8.24c2.048,7.756-3.275,19.509-10.839,24.338C276.115,83.105,266.342,80,255.994,80
	c-10.367,0-20.158,3.117-28.828,8.61C219.575,83.801,214.225,72.013,216.277,64.24z M144.331,485.701
	c-1.188,3.96-3.855,8.387-7.137,9.35c-2.89,0.847-7.149-0.972-11.994-5.125c-1.339-1.147-7.723-9.191-1.921-55.006
	c3.528-27.859,10.916-64.709,21.959-109.526c19.724-80.044,43.776-155.996,46.247-162.585c0.183-0.489,0.364-0.926,0.539-1.324
	c0.102,6.948,0.915,13.678,2.353,20.089C175.469,299.593,146.703,476.936,144.331,485.701z M255.994,464
	c-8.919,0-17.992-6.688-26.187-18.914c5.805,1.332,11.876,2.232,18.077,2.642c0.18,0.012,0.358,0.018,0.536,0.018
	c4.178,0,7.695-3.243,7.975-7.472c0.292-4.409-3.046-8.22-7.455-8.511c-10.811-0.715-21.08-3.097-29.753-6.877
	c-0.344-0.819-0.685-1.648-1.023-2.49c-2.894-7.216-5.466-15.043-7.7-23.37c13.003,5.784,28.814,8.973,45.5,8.973
	c2.886,0,5.794-0.097,8.643-0.288c4.409-0.297,7.742-4.11,7.446-8.519c-0.296-4.409-4.114-7.731-8.518-7.446
	c-2.494,0.168-5.041,0.253-7.571,0.253c-19.791,0-38.52-5.262-50.24-14.083c-1.309-7.085-2.4-14.422-3.268-21.959
	c14.483,7.72,33.397,12.042,53.537,12.042c5.34,0,10.677-0.308,15.863-0.916c4.388-0.514,7.529-4.488,7.015-8.876
	s-4.481-7.534-8.877-7.015c-4.57,0.535-9.28,0.807-14,0.807c-20.871,0-40.625-5.394-52.842-14.428
	c-0.752-0.556-1.57-0.951-2.416-1.21c-0.489-7.978-0.742-16.115-0.742-24.362c0-1.831,0.062-3.597,0.168-5.317
	C214.91,315.202,234.771,320,255.994,320c5.341,0,10.679-0.308,15.865-0.916c4.389-0.514,7.529-4.488,7.015-8.876
	s-4.49-7.533-8.876-7.015c-4.571,0.535-9.282,0.807-14.003,0.807c-20.649,0-40.193-5.286-52.439-14.148
	C210.393,272.138,227.298,264,255.994,264c28.759,0,45.676,8.172,52.485,25.967c-0.345,0.169-0.684,0.356-1.01,0.58
	c-3.913,2.687-8.546,5.053-13.771,7.034c-4.131,1.566-6.21,6.186-4.644,10.316c1.213,3.198,4.253,5.166,7.482,5.166
	c0.942,0,1.901-0.168,2.835-0.521c4.489-1.702,8.654-3.668,12.456-5.86c0.106,1.72,0.168,3.487,0.168,5.318
	c0,8.66-0.279,17.062-0.801,25.182c-1.294,0.129-2.575,0.576-3.723,1.364c-3.916,2.688-8.551,5.056-13.777,7.037
	c-4.131,1.565-6.211,6.185-4.645,10.315c1.212,3.198,4.253,5.167,7.482,5.167c0.942,0,1.9-0.168,2.834-0.521
	c3.593-1.362,6.975-2.895,10.136-4.575c-0.901,7.699-2.03,15.079-3.354,22.115c-0.304,0.162-0.604,0.338-0.893,0.544
	c-5.093,3.631-11.627,6.741-18.896,8.993c-4.22,1.308-6.582,5.789-5.274,10.009c1.063,3.433,4.225,5.635,7.639,5.635
	c0.784,0,1.582-0.116,2.37-0.36c3.611-1.119,7.033-2.405,10.271-3.837c-2.601,9.58-5.587,18.264-8.85,25.944
	c-6.249,2.692-13.226,4.649-20.768,5.804c-4.367,0.669-7.366,4.752-6.697,9.119c0.606,3.957,4.014,6.79,7.898,6.79
	c0.402,0,0.81-0.03,1.221-0.093c2.609-0.4,5.162-0.892,7.665-1.456C273.655,457.312,264.663,464,255.994,464z M263.994,248.222
	v-8.869c17.106-2.68,32.127-13.823,42.296-29.97c2.581,16.064,6.034,37.524,9.9,61.465
	C305.71,257.126,288.274,249.555,263.994,248.222z M389.131,434.92c5.801,45.814-0.583,53.858-1.921,55.006
	c-4.845,4.153-9.106,5.973-11.994,5.125c-3.282-0.963-5.949-5.39-7.121-9.292c-2.395-8.85-31.331-187.259-50.237-305.273
	c1.347-6.348,2.081-13.002,2.123-19.859c0.299,0.593,0.617,1.309,0.944,2.182c2.471,6.589,26.523,82.541,46.247,162.585
	C378.215,370.211,385.603,407.061,389.131,434.92z"/>
<g>
</g>
<g>
</g>
<g>
</g>
<g>
</g>
<g>
</g>
<g>
</g>
<g>
</g>
<g>
</g>
<g>
</g>
<g>
</g>
<g>
</g>
<g>
</g>
<g>
</g>
<g>
</g>
<g>
</g>
</svg>
