<?xml version="1.0" standalone="no"?>
<!DOCTYPE svg PUBLIC "-//W3C//DTD SVG 20010904//EN"
 "http://www.w3.org/TR/2001/REC-SVG-20010904/DTD/svg10.dtd">
<svg version="1.0" xmlns="http://www.w3.org/2000/svg"
 width="512.000000pt" height="512.000000pt" viewBox="0 0 512.000000 512.000000"
 preserveAspectRatio="xMidYMid meet">

<g transform="translate(0.000000,512.000000) scale(0.100000,-0.100000)"
fill="#000000" stroke="none">
<path d="M4446 5109 c-212 -28 -384 -115 -466 -238 l-35 -52 -45 8 c-91 16
-241 9 -315 -14 -200 -63 -367 -227 -439 -432 -27 -76 -30 -98 -30 -196 1 -72
6 -127 17 -158 14 -45 14 -47 -2 -42 -169 53 -399 45 -581 -21 l-68 -24 -528
336 c-290 186 -540 342 -556 348 -61 23 -116 -70 -71 -121 28 -32 1595 -1027
1623 -1031 39 -6 80 32 80 73 0 42 -14 54 -220 185 -107 69 -157 106 -148 111
26 14 133 29 212 29 203 0 392 -84 537 -237 84 -89 130 -166 170 -284 30 -87
33 -104 33 -224 0 -94 -5 -148 -18 -195 -57 -211 -207 -393 -400 -486 l-69
-33 -40 20 c-52 27 -806 279 -833 279 -43 0 -114 177 -133 330 -6 44 -8 87 -5
95 5 13 34 14 203 8 195 -6 198 -6 220 16 30 30 26 87 -9 112 -22 16 -74 20
-460 34 -279 10 -465 21 -520 31 -453 81 -843 415 -998 854 -53 151 -66 237
-67 425 0 143 3 175 17 202 39 71 139 103 209 68 19 -10 115 -69 213 -132 99
-62 185 -113 192 -113 55 0 98 64 73 108 -18 32 -398 276 -456 292 -63 18
-169 9 -226 -20 -59 -29 -121 -95 -150 -158 -20 -43 -22 -63 -22 -242 0 -125
5 -220 14 -265 20 -102 83 -289 125 -374 21 -40 36 -74 34 -75 -2 -1 -27 -17
-56 -35 -122 -77 -172 -229 -123 -372 49 -143 169 -334 294 -465 218 -230 491
-379 812 -441 102 -19 372 -23 466 -6 l57 10 -65 -74 c-170 -196 -285 -429
-345 -700 -32 -145 -32 -453 1 -603 86 -403 310 -738 644 -963 159 -107 383
-198 577 -234 131 -24 409 -24 540 1 208 39 428 131 601 251 117 81 310 278
387 394 113 170 203 388 233 563 11 68 11 79 -4 102 -21 31 -60 43 -92 28 -14
-6 -39 -41 -61 -84 -54 -104 -174 -223 -274 -272 -346 -169 -758 3 -876 367
-37 112 -39 257 -5 366 21 70 23 73 49 67 170 -37 383 4 412 80 13 33 -6 74
-41 91 -22 11 -35 9 -85 -9 -62 -22 -170 -29 -235 -15 l-36 7 -6 118 c-3 69
-11 135 -21 161 -9 24 -16 47 -16 50 0 4 21 17 48 30 116 57 243 171 330 299
l50 72 36 -40 c40 -45 89 -135 105 -198 26 -95 151 -87 151 10 0 79 -103 265
-187 336 l-45 39 16 65 c9 35 19 92 22 127 l7 63 36 -7 c63 -11 158 -63 199
-110 53 -60 72 -125 72 -245 0 -111 11 -130 72 -130 63 0 73 23 72 169 0 108
-3 134 -23 181 -62 150 -212 263 -383 288 l-51 7 -23 87 c-13 47 -30 103 -38
123 -14 34 -14 37 0 31 9 -3 52 -16 97 -28 72 -20 105 -23 267 -22 170 0 192
3 275 27 53 15 97 35 106 46 9 11 26 55 38 98 89 330 24 654 -189 941 -23 31
-23 32 -4 47 40 30 124 55 190 55 73 0 109 -12 184 -64 60 -42 77 -44 114 -15
39 31 36 82 -7 123 -91 85 -235 129 -356 107 -69 -12 -199 -67 -233 -98 -16
-15 -21 -14 -58 12 -23 16 -43 31 -45 35 -8 13 64 87 115 120 87 56 270 100
416 100 77 0 115 84 58 129 -30 23 -99 26 -228 10z m-525 -449 c192 -74 381
-329 433 -582 21 -102 21 -286 -1 -383 -16 -73 -17 -75 -52 -85 -255 -72 -560
-13 -782 151 -242 178 -314 404 -202 636 34 71 156 197 229 236 116 61 260 72
375 27z m-3263 -962 c222 -271 520 -446 872 -513 47 -9 162 -19 256 -22 l171
-6 7 -86 c7 -89 38 -236 57 -273 15 -28 5 -33 -106 -54 -118 -22 -330 -22
-451 -1 -415 75 -778 349 -958 727 -57 119 -59 181 -9 241 23 27 72 57 95 59
4 0 33 -33 66 -72z m1971 -1267 c210 -71 393 -136 406 -145 70 -46 102 -142
92 -276 -6 -68 -40 -205 -55 -222 -4 -3 -140 20 -302 53 -162 32 -308 59 -326
59 -60 0 -91 -69 -52 -115 22 -25 44 -31 333 -89 l310 -62 6 -84 c3 -47 9
-104 13 -127 7 -39 6 -43 -16 -48 -41 -10 -1291 -265 -1299 -265 -11 0 -46
160 -60 270 -7 55 -9 141 -5 205 6 113 31 270 46 295 8 12 40 8 209 -25 220
-43 241 -42 262 12 12 33 -9 88 -38 97 -10 2 -99 21 -198 41 -99 20 -181 37
-182 38 -5 6 90 183 133 248 27 40 85 111 129 157 80 83 125 111 186 112 14 0
198 -58 408 -129z m491 -1210 c0 -5 20 -40 45 -77 25 -36 45 -69 45 -73 -1 -8
-914 -691 -924 -691 -19 0 -178 135 -249 210 -116 123 -267 364 -235 375 7 2
137 30 288 60 391 79 694 142 850 175 148 31 180 35 180 21z m253 -295 c26
-18 81 -49 122 -67 41 -19 75 -37 75 -41 0 -15 -168 -609 -174 -615 -12 -12
-192 -42 -291 -48 -119 -8 -271 7 -399 39 -99 26 -252 82 -261 96 -5 8 858
667 875 669 3 1 26 -14 53 -33z m861 -71 c-93 -168 -247 -339 -405 -450 -94
-66 -234 -143 -244 -134 -3 4 26 120 65 258 38 138 70 254 70 256 0 3 44 5 98
5 150 0 279 34 392 103 30 18 57 32 58 31 2 -1 -13 -33 -34 -69z"/>
<path d="M3765 4439 c-51 -12 -122 -61 -158 -107 -15 -20 -35 -60 -43 -90 -52
-178 83 -353 271 -353 104 0 189 49 242 138 37 63 44 180 16 244 -57 128 -197
200 -328 168z m130 -161 c42 -19 68 -72 62 -126 -10 -91 -105 -140 -187 -97
-70 36 -84 143 -26 201 29 29 41 34 80 34 25 0 57 -5 71 -12z"/>
</g>
</svg>
