<?xml version="1.0" encoding="UTF-8"?>
<svg xmlns="http://www.w3.org/2000/svg" xmlns:xlink="http://www.w3.org/1999/xlink" width="378pt" height="504pt" viewBox="0 0 378 504" version="1.1">
<g id="surface6">
<rect x="0" y="0" width="378" height="504" style="fill:rgb(100%,100%,100%);fill-opacity:1;stroke:none;"/>
<path style=" stroke:none;fill-rule:nonzero;fill:rgb(100%,100%,100%);fill-opacity:1;" d="M 53.960938 504 L 324.039063 504 L 324.039063 0 L 53.960938 0 Z M 53.960938 504 "/>
<path style=" stroke:none;fill-rule:nonzero;fill:#FFC019;fill-opacity:1;" d="M 242.570313 442.367188 L 243.875 441.144531 L 250.828125 437 L 253.328125 434.917969 L 255.710938 431.652344 L 257.25 427.585938 L 257.925781 426.417969 L 258.9375 425.527344 L 260.179688 425.007813 L 261.519531 424.90625 L 262.824219 425.242188 L 263.957031 425.976563 L 264.792969 427.03125 L 265.25 428.296875 L 265.71875 430.804688 L 266.460938 432.914063 L 267.511719 434.882813 L 269.046875 436.921875 L 269.667969 438.105469 L 269.882813 439.425781 L 269.667969 440.746094 L 268.625 443.875 L 267.945313 445.136719 L 266.878906 446.09375 L 264.105469 447.828125 L 262.144531 449.652344 L 259.152344 453.730469 L 257.902344 456.046875 L 257.0625 458.652344 L 256.722656 461.371094 L 256.867188 463.910156 L 257.589844 466.882813 L 256.738281 467.042969 L 254.667969 467.789063 L 254.03125 468.40625 L 253.804688 469.503906 L 253.21875 469.695313 L 249.835938 467.570313 L 250.289063 466.761719 L 251.1875 466.222656 L 249.300781 464.457031 L 242.605469 464.328125 L 242.480469 464.675781 L 243.769531 466.117188 L 243.382813 467.101563 L 242.871094 467.417969 L 237.441406 466.828125 L 229.773438 470 L 227.070313 469.332031 L 219.722656 470.5625 L 217.503906 470.460938 L 216.546875 469.582031 L 215.433594 471.425781 L 218.867188 472.84375 L 219.171875 472.679688 L 219.683594 473.964844 L 219.160156 475.445313 L 218.761719 475.507813 L 217.453125 475.289063 L 216.28125 474.675781 L 215.363281 473.722656 L 214.785156 472.527344 L 214.617188 471.214844 L 214.773438 465.945313 L 215.042969 464.585938 L 216.078125 461.871094 L 216.550781 459.3125 L 216.261719 454.300781 L 216.367188 453.105469 L 216.804688 451.988281 L 217.542969 451.042969 L 218.523438 450.347656 L 219.65625 449.960938 L 220.855469 449.910156 L 225.34375 450.375 L 230.121094 450.1875 L 234.726563 449.242188 L 236.925781 448.210938 L 239.015625 446.742188 L 240.804688 444.9375 Z M 244.542969 470.316406 L 243.597656 470.277344 L 241.535156 470.652344 L 239.253906 471.457031 L 237.136719 472.625 L 235.136719 474.191406 L 232.710938 472.625 L 230.460938 472.949219 L 231.824219 471.328125 L 238.109375 467.761719 L 243.742188 469.261719 Z M 247.835938 298.507813 L 249.597656 295.5 L 250.421875 294.492188 L 251.515625 293.785156 L 252.574219 293.507813 L 256.574219 295.371094 L 257.9375 296.980469 L 259.574219 300.09375 L 261.75 305.679688 L 263.40625 307.507813 L 262.886719 307.882813 L 261.707031 308.28125 L 257.789063 308.976563 L 254.148438 310.578125 L 252.664063 310.925781 L 251.15625 310.71875 L 248.796875 309.9375 L 246.152344 309.5 L 244.875 309.066406 L 243.800781 308.246094 L 243.046875 307.128906 L 242.6875 305.828125 L 242.765625 304.480469 L 243.265625 303.230469 L 244.140625 302.203125 L 246.199219 300.457031 Z M 142.730469 373.023438 L 142.640625 372.851563 L 142.429688 371.519531 L 142.65625 370.1875 L 143.292969 369 L 144.859375 366.957031 L 145.265625 366.675781 L 146.953125 366.183594 L 151.839844 361.910156 L 152.722656 358.183594 L 156.59375 353.949219 L 158.253906 352.902344 L 160.242188 353.113281 L 166.214844 350.582031 L 169.605469 350.398438 L 173.582031 350.863281 L 174.304688 350.515625 L 175.417969 352.042969 L 177.132813 353.726563 L 179.101563 355.101563 L 181.257813 356.136719 L 183.753906 356.84375 L 185.976563 357.089844 L 189.261719 356.96875 L 190.398438 357.085938 L 191.460938 357.503906 L 192.371094 358.199219 L 194.3125 360.152344 L 196.4375 361.65625 L 198.613281 362.691406 L 200.828125 363.328125 L 204.957031 363.5625 L 208.914063 362.679688 L 212.011719 361.066406 L 215.175781 358.238281 L 215.738281 357.8125 L 217.609375 356.640625 L 218.871094 356.113281 L 220.234375 356.023438 L 221.550781 356.375 L 222.6875 357.136719 L 223.515625 358.222656 L 223.945313 359.515625 L 223.9375 360.882813 L 223.253906 364.855469 L 223.503906 368.371094 L 224.597656 371.730469 L 226.332031 374.558594 L 229.109375 377.261719 L 232.476563 379.132813 L 236.023438 380.035156 L 240.429688 379.988281 L 241.625 380.148438 L 242.726563 380.644531 L 243.636719 381.4375 L 244.285156 382.457031 L 244.609375 383.617188 L 244.59375 384.824219 L 244.269531 386.828125 L 243.839844 388.109375 L 243.027344 389.1875 L 241.910156 389.945313 L 240.609375 390.308594 L 239.257813 390.238281 L 236.375 389.605469 L 233.980469 389.5 L 231.597656 389.789063 L 229.128906 390.527344 L 226.824219 391.691406 L 224.886719 393.128906 L 223.296875 394.761719 L 221.320313 397.4375 L 220.167969 399.574219 L 219.398438 401.828125 L 219 404.179688 L 218.992188 406.902344 L 218.8125 408.101563 L 218.296875 409.195313 L 217.492188 410.097656 L 215.234375 411.976563 L 213.570313 413.949219 L 212.367188 416.007813 L 211.492188 418.335938 L 210.949219 422.242188 L 211.453125 426.410156 L 211.449219 427.449219 L 211.191406 428.457031 L 209.910156 431.671875 L 209.425781 434.386719 L 209.726563 439.183594 L 209.582031 440.574219 L 208.980469 441.839844 L 207.996094 442.835938 L 206.738281 443.449219 L 205.351563 443.613281 L 200.800781 443.375 L 197.011719 444.210938 L 194.285156 445.496094 L 193.519531 445.765625 L 190.660156 446.484375 L 188.484375 447.449219 L 186.203125 448.988281 L 184.328125 450.84375 L 182.160156 454.320313 L 181.039063 458.1875 L 180.972656 462.058594 L 181.359375 464.851563 L 182.121094 467.460938 L 182.285156 468.648438 L 182.105469 469.839844 L 181.59375 470.929688 L 180.792969 471.824219 L 179.496094 472.910156 L 175.359375 475.152344 L 174.523438 476.050781 L 173.433594 478.320313 L 170.933594 485.640625 L 170.714844 485.8125 L 169.152344 487.566406 L 167.796875 489.726563 L 166.765625 492.222656 L 166.085938 493.332031 L 163.820313 492.890625 L 163.050781 492.175781 L 161.945313 489.804688 L 159.960938 488.28125 L 158.8125 488.394531 L 157.527344 489.210938 L 156.796875 489.0625 L 153.277344 485.15625 L 147.175781 485.617188 L 145.808594 486.0625 L 144.957031 486.921875 L 144.070313 487.28125 L 138.253906 487.078125 L 135.738281 487.65625 L 132.777344 491.246094 L 129.871094 492.914063 L 126.996094 493.832031 L 126.019531 497.804688 L 126.589844 498.882813 L 126.410156 499.78125 L 125.578125 500.664063 L 123.359375 501.421875 L 122.25 503.65625 L 121.21875 502.773438 L 120.460938 501.464844 L 120.597656 500.117188 L 119.589844 498.238281 L 118.324219 497.164063 L 115.945313 496.128906 L 116.054688 495.828125 L 116.804688 494.835938 L 118.761719 492.929688 L 120.273438 490.851563 L 121.390625 488.550781 L 121.542969 488.023438 L 124.179688 485.753906 L 127.355469 482.183594 L 128.089844 480.53125 L 128.726563 479.96875 L 132.4375 475.03125 L 135.671875 474.511719 L 136.289063 473.59375 L 136.910156 471.164063 L 139.707031 469.046875 L 142.699219 465.902344 L 143.226563 459.34375 L 143.945313 455.265625 L 146.847656 455.648438 L 148.757813 456.625 L 150.367188 455.992188 L 153.234375 452.832031 L 152.886719 447.480469 L 156.113281 446.507813 L 162.910156 446.136719 L 165.589844 445.507813 L 170.628906 446.671875 L 172.1875 446.007813 L 173.785156 446.402344 L 175.886719 447.230469 L 176.484375 448.117188 L 177.257813 448.457031 L 179.839844 448.503906 L 187.816406 447.46875 L 188.394531 445.453125 L 188.503906 442.789063 L 189.910156 439.664063 L 198.894531 430.996094 L 204.191406 423.589844 L 206.496094 422.6875 L 206.875 421.941406 L 206.644531 421.363281 L 206.367188 421.191406 L 204.519531 422.5625 L 201.085938 425.730469 L 198.578125 428.625 L 197.125 430.195313 L 193.261719 431.816406 L 191.199219 432.125 L 189.828125 431.929688 L 185.476563 434.261719 L 184.402344 435.960938 L 184.015625 437.964844 L 183.378906 438.613281 L 180.808594 439.304688 L 177.042969 439.234375 L 173.023438 438.316406 L 172.515625 437.945313 L 167.160156 432.269531 L 164.640625 427.769531 L 161.011719 428.191406 L 154.136719 431.117188 L 153.972656 431.589844 L 151.917969 430.390625 L 151.609375 427.894531 L 153.351563 426.890625 L 154.996094 427.441406 L 156.6875 426.9375 L 157.902344 426.300781 L 158.246094 425.511719 L 157.949219 424.972656 L 152.539063 424.828125 L 147.617188 421.871094 L 143.628906 421.875 L 140.683594 422.476563 L 140.179688 424.882813 L 139.621094 425.625 L 137.433594 426.394531 L 135.984375 425.691406 L 135.179688 425.894531 L 132.800781 427.96875 L 129.675781 426.625 L 130.636719 424.421875 L 132.113281 424.148438 L 135.335938 422.53125 L 134.726563 420.960938 L 134.097656 422.457031 L 131.007813 422.839844 L 125.820313 422.34375 L 124.257813 421.28125 L 127.085938 419.792969 L 128.207031 419.761719 L 128.527344 419.207031 L 127.953125 415.671875 L 126.226563 414.875 L 124.203125 414.761719 L 124.863281 412.660156 L 129.03125 410.75 L 129.679688 409.164063 L 136.714844 408.5625 L 138.644531 406.351563 L 139.59375 404.570313 L 141.570313 403.402344 L 145.628906 403.523438 L 146.550781 403.234375 L 154.234375 398.324219 L 157.222656 394.429688 L 158.210938 392.265625 L 159.445313 387.476563 L 158.945313 384.328125 L 157.6875 381.878906 L 158.347656 379.785156 L 159.929688 376.773438 L 157.367188 372.90625 L 157.8125 369.28125 L 158.34375 368.472656 L 157.941406 367.53125 L 155.144531 367.421875 L 150.027344 368.660156 L 148.210938 369.980469 L 146.359375 372.792969 Z M 146.242188 351.816406 L 145.8125 350.886719 L 143.988281 348.34375 L 143.894531 348.148438 L 144.808594 348.117188 L 145.761719 349.351563 L 146.5625 351.371094 Z M 151.300781 343.789063 L 152.050781 344.433594 L 154.125 345.714844 L 155.019531 346.082031 L 156.042969 348.5625 L 160.894531 349.5625 L 159.296875 352.09375 L 155.984375 354.199219 L 152.152344 357.597656 L 150.738281 357.488281 L 148.679688 355.054688 L 146.371094 350.484375 L 146.582031 345.007813 L 149.183594 343.835938 L 150.625 343.589844 Z M 104.457031 206.679688 L 104.457031 206.65625 L 104.558594 205.789063 L 104.6875 205.714844 L 104.851563 205.945313 Z M 109.828125 189.257813 L 111.378906 188.582031 L 113.949219 186.683594 L 114.066406 186.550781 L 117.046875 186.007813 L 118.21875 187.238281 L 119.496094 187.996094 L 121.011719 185.882813 L 119.757813 184.949219 L 119.691406 184.015625 L 122.300781 183.472656 L 123.191406 183.664063 L 124.609375 182.566406 L 124.4375 182.027344 L 122.796875 181.121094 L 119.210938 181.621094 L 118.136719 181.121094 L 120.769531 176.019531 L 121.394531 175.566406 L 123.121094 175.621094 L 123.480469 176.363281 L 125.417969 177.632813 L 127.398438 177.246094 L 128.59375 176.648438 L 125.753906 177.03125 L 122.046875 173.832031 L 122.261719 172.511719 L 123.710938 170.960938 L 125.625 170.914063 L 128.484375 172.390625 L 131.898438 171.726563 L 131.394531 171.144531 L 129.847656 171.324219 L 128.125 171.042969 L 125.730469 168.8125 L 126 165.410156 L 128.464844 164.527344 L 128.734375 165.015625 L 130.910156 166.300781 L 131.441406 166.484375 L 132.027344 165.980469 L 129.460938 163.617188 L 128.003906 163.234375 L 127.421875 161.042969 L 128.0625 160.984375 L 130.972656 158.601563 L 131.363281 157.070313 L 129.988281 157.894531 L 123.167969 160.371094 L 121.980469 159.191406 L 120.976563 153.769531 L 121.253906 152.632813 L 121.511719 152.371094 L 123.953125 150.460938 L 124.183594 150.925781 L 126.570313 152.738281 L 127.375 152.003906 L 130.175781 151.6875 L 129.554688 150.839844 L 126.851563 150.695313 L 126.199219 150.957031 L 125.148438 149.527344 L 125.234375 149.460938 L 126.117188 148.933594 L 130.25 147.105469 L 131.476563 146.773438 L 132.742188 146.828125 L 133.933594 147.257813 L 137.792969 149.363281 L 141.347656 150.238281 L 145.003906 150.195313 L 148.804688 149.148438 L 153.472656 146.679688 L 156.203125 144.417969 L 158.457031 141.320313 L 159.757813 137.929688 L 161.246094 138.625 L 167.148438 140.199219 L 170.035156 140.605469 L 170.570313 140.46875 L 170.792969 140.699219 L 172.035156 141.597656 L 168.613281 145.636719 L 168.027344 145.863281 L 167.539063 145.554688 L 167.683594 144.535156 L 167.332031 144.0625 L 165.667969 144.359375 L 160.648438 146.496094 L 157.550781 149.769531 L 157.023438 150.988281 L 157.230469 151.203125 L 161.800781 147.230469 L 163.261719 146.722656 L 166.003906 147.089844 L 166.824219 148.164063 L 162.574219 152.988281 L 161.777344 154.640625 L 162.144531 155.15625 L 162.851563 155.332031 L 163.8125 154.859375 L 166.910156 152.140625 L 174.085938 149.191406 L 176.960938 148.386719 L 176.972656 148.839844 L 178.117188 148.726563 L 180.304688 147.085938 L 180.796875 145.429688 L 185.75 144.769531 L 186.433594 145.765625 L 187.363281 146.386719 L 190.613281 147.433594 L 190.480469 148.542969 L 189.980469 149.675781 L 189.167969 150.609375 L 186.117188 153.21875 L 184.191406 155.867188 L 182.675781 159.773438 L 182.269531 164.480469 L 181.882813 165.914063 L 181.015625 167.121094 L 179.046875 169.027344 L 175.460938 173.402344 L 174.132813 175.964844 L 173.359375 178.613281 L 173.109375 180.820313 L 173.199219 183.070313 L 173.640625 185.285156 L 174.363281 187.257813 L 176.890625 191.140625 L 178.402344 192.597656 L 180.511719 194.082031 L 181.429688 194.960938 L 182.039063 196.082031 L 182.28125 197.328125 L 182.136719 198.59375 L 181.621094 199.757813 L 180.773438 200.707031 L 178.371094 202.699219 L 176.636719 204.792969 L 175.242188 207.347656 L 174.433594 209.90625 L 174.101563 213.132813 L 174.484375 216.320313 L 175.550781 219.34375 L 177.5 222.453125 L 177.546875 222.570313 L 176.671875 222.183594 L 172.65625 222.0625 L 172.933594 223.371094 L 174.554688 224.417969 L 178.097656 225.027344 L 177.886719 226.085938 L 177.289063 227.1875 L 174.953125 230.273438 L 173.640625 233.195313 L 173 236.332031 L 173.089844 239.726563 L 173.886719 242.828125 L 175.351563 245.6875 L 177.398438 248.148438 L 180.476563 250.492188 L 181.503906 251.625 L 182.050781 253.050781 L 182.660156 256.332031 L 184.894531 262.988281 L 186.425781 265.601563 L 188.640625 268 L 190.527344 269.386719 L 192.667969 270.472656 L 194.957031 271.191406 L 197.675781 271.574219 L 198.722656 271.863281 L 203.878906 274.046875 L 207.664063 274.527344 L 211.8125 273.980469 L 213.046875 274 L 214.222656 274.382813 L 215.234375 275.09375 L 215.996094 276.070313 L 216.433594 277.226563 L 216.515625 278.457031 L 216.234375 279.664063 L 215.609375 280.730469 L 212.746094 284.289063 L 211.230469 287.789063 L 210.675781 291.582031 L 211.144531 295.738281 L 210.992188 297.425781 L 210.242188 299.878906 L 209.929688 302.054688 L 210.027344 304.992188 L 210.636719 307.636719 L 211.730469 310.128906 L 213.488281 312.699219 L 214.066406 313.9375 L 214.210938 315.296875 L 213.910156 316.628906 L 213.195313 317.792969 L 212.140625 318.664063 L 210.863281 319.144531 L 209.496094 319.1875 L 206.226563 318.753906 L 203.539063 318.910156 L 200.734375 319.632813 L 197.9375 320.957031 L 196.664063 321.328125 L 195.335938 321.28125 L 194.09375 320.820313 L 193.058594 319.992188 L 192.574219 319.457031 L 195.035156 313.964844 L 195.507813 311.289063 L 195.65625 307.578125 L 192.304688 310.851563 L 186.339844 313.984375 L 184.335938 313.179688 L 179.507813 304.824219 L 178.90625 301.496094 L 173.652344 293.773438 L 175.542969 287.753906 L 180.824219 276.628906 L 183.398438 274.152344 L 185.863281 273.679688 L 187.410156 274.570313 L 188.292969 274.46875 L 190.359375 273.957031 L 190.464844 272.796875 L 189.722656 272.355469 L 187.242188 273.007813 L 181.453125 272.605469 L 179.207031 271.863281 L 175.851563 271.585938 L 174.535156 276.921875 L 172.394531 276.601563 L 169.25 278.019531 L 167.65625 280 L 165.046875 281.789063 L 161.546875 281.570313 L 160.476563 281.214844 L 154.90625 277.179688 L 154.078125 275.898438 L 154.097656 274.957031 L 153.789063 274.804688 L 152.9375 275.9375 L 152.757813 276.835938 L 153.175781 278.605469 L 154.464844 281.191406 L 154.507813 281.621094 L 154.351563 281.582031 L 153.191406 280.863281 L 151.269531 279.171875 L 149.390625 277.976563 L 147.167969 277.015625 L 144.699219 276.390625 L 143.488281 275.867188 L 142.503906 274.996094 L 141.835938 273.859375 L 140.921875 271.503906 L 139.820313 269.585938 L 138.441406 267.859375 L 136.824219 266.367188 L 137.710938 263.625 L 141.753906 259.753906 L 142.660156 255.273438 L 145.15625 251.203125 L 148.085938 249.820313 L 148.890625 247.757813 L 148.679688 246.394531 L 146.964844 242.199219 L 143.925781 240.167969 L 141.34375 237.671875 L 142.753906 226.613281 L 144.929688 225.925781 L 147.269531 226.910156 L 150.789063 227.628906 L 153.097656 227.710938 L 145.519531 224.695313 L 144.640625 224.816406 L 143.503906 224.300781 L 143.285156 222.1875 L 143.535156 220.402344 L 144.421875 218.453125 L 143.40625 218.761719 L 142.359375 224.488281 L 140.03125 229.75 L 138.8125 229.53125 L 135.089844 226.601563 L 134.222656 226.898438 L 133.699219 227.808594 L 133.507813 229.089844 L 134.121094 231 L 133.964844 231.328125 L 131.53125 230.089844 L 130.683594 227.515625 L 131.742188 222.800781 L 134.730469 217.839844 L 140.886719 212.71875 L 142.355469 210.867188 L 139.386719 212.691406 L 133.796875 217.71875 L 129.589844 223.042969 L 128.75 222.847656 L 128.523438 222.449219 L 129.304688 234.644531 L 127.433594 236.644531 L 126.878906 237.992188 L 126.722656 237.722656 L 123.800781 234.613281 L 123.257813 234.238281 L 123.363281 233.957031 L 121.746094 231.625 L 121.960938 226.757813 L 124.742188 222.117188 L 125.003906 221.082031 L 123.535156 221.78125 L 122.257813 223.9375 L 122.054688 223.058594 L 126.875 214.460938 L 126.597656 214.238281 L 125.214844 215.382813 L 124.59375 215.363281 L 124.875 210.660156 L 125.617188 207.742188 L 127.125 204.808594 L 129.8125 202.917969 L 132.109375 202.882813 L 132.683594 203.214844 L 134.953125 203.035156 L 138.011719 199.828125 L 139.109375 197.320313 L 138.628906 197.6875 L 137.820313 199.589844 L 135.449219 202.207031 L 134.617188 202.308594 L 130.480469 200.828125 L 131.128906 198.882813 L 131.464844 199.1875 L 132.269531 199.109375 L 134.558594 197.433594 L 132.878906 197.183594 L 131.847656 197.785156 L 131.234375 197.257813 L 131.121094 196.003906 L 133.035156 192.671875 L 137.945313 186.585938 L 138.351563 185.480469 L 126.386719 197.742188 L 123.375 199.753906 L 122.894531 198.808594 L 118.210938 196.703125 L 117.066406 195.875 L 115.238281 193.453125 L 115.261719 192.613281 L 116.15625 192.019531 L 118.523438 191.910156 L 123.277344 190.957031 L 126.9375 191.023438 L 127.226563 190.910156 L 127.078125 190.628906 L 121.742188 189.519531 L 119.449219 190.875 L 117.636719 191.058594 L 110.703125 190.375 L 109.890625 189.640625 Z M 118.464844 174.015625 L 117.601563 170.632813 L 117.308594 170.113281 L 117.464844 169.808594 L 116.171875 167.53125 L 116.019531 167.804688 L 115.449219 166.785156 L 115.019531 165.652344 L 114.929688 164.445313 L 115.195313 163.261719 L 115.566406 162.289063 L 119.960938 164.882813 L 123.476563 163.359375 L 126.054688 164.40625 L 125.304688 167.015625 L 121.730469 170.683594 L 120.59375 171.152344 Z M 116.195313 160.636719 L 117.097656 158.277344 L 117.660156 157.257813 L 117.957031 156.859375 L 117.660156 159.589844 L 117.210938 160.261719 Z M 160.417969 136.550781 L 160.664063 136.125 L 161.625 135.253906 L 162.804688 134.71875 L 164.09375 134.574219 L 165.363281 134.832031 L 166.492188 135.464844 L 167.375 136.417969 L 168.050781 137.421875 L 167.921875 137.742188 L 165.300781 138.449219 L 162.285156 137.449219 Z M 132.824219 249.699219 L 132.753906 249.566406 L 132.449219 248.878906 L 131.25 245.316406 L 128.582031 240.84375 L 129.089844 238.433594 L 131.445313 236.3125 L 132.910156 236.523438 L 134.902344 238.214844 L 136.617188 243.988281 L 136.65625 248.703125 L 135.886719 249.445313 L 134.066406 249.789063 Z M 114.171875 231.519531 L 113.195313 231.535156 L 112.34375 231.699219 L 111.324219 230.820313 L 111.128906 227.746094 L 111.441406 226.457031 L 114.644531 221.148438 L 118.992188 217.386719 L 121.78125 215.628906 L 122.253906 216.816406 L 122.054688 217.695313 L 120.511719 219.617188 L 115.933594 227.789063 Z M 110.835938 231.984375 L 108.582031 232.820313 L 106.023438 234.304688 L 105.886719 234.355469 L 106.496094 232.25 L 104.332031 231.855469 L 102.734375 234.632813 L 102.136719 234.460938 L 101.03125 233.691406 L 100.378906 232.816406 L 101.835938 228.285156 L 103.761719 227.667969 L 105.308594 228.039063 L 108.519531 225.777344 L 110.203125 225.078125 L 110.453125 225.648438 L 110.253906 227.628906 L 110.570313 230.984375 Z M 248.355469 467.488281 L 246.523438 466.984375 L 248.015625 464.875 L 248.742188 465.394531 L 249.070313 467.195313 Z M 118.566406 163.007813 L 117.332031 162.441406 L 116.832031 161.714844 L 116.9375 161.203125 L 117.636719 160.960938 L 119.058594 161.546875 L 119.296875 162.503906 Z M 112.527344 191.859375 L 114.011719 192.617188 L 115.425781 195.144531 L 115.960938 196.988281 L 118.835938 198.328125 L 120.421875 198.710938 L 123.929688 201.773438 L 123.621094 203.992188 L 122.046875 206.285156 L 118.703125 208.105469 L 117.753906 207.574219 L 118.488281 206.28125 L 117.726563 206.046875 L 114.15625 208.039063 L 107.617188 209.777344 L 106.175781 209.441406 L 105.144531 207.296875 L 105.273438 206.320313 L 105.636719 206.019531 L 107.183594 205.976563 L 107.628906 206.585938 L 108.632813 207.074219 L 114.269531 205.019531 L 114.078125 204.402344 L 111.738281 205.324219 L 109.949219 205.371094 L 109.546875 204.347656 L 111.230469 202.125 L 114.683594 200.492188 L 115.015625 199.273438 L 114.636719 199.136719 L 111.785156 200.023438 L 106.574219 196.3125 L 107.195313 193.726563 L 110.71875 192.085938 L 111.921875 191.707031 Z M 109.882813 200.621094 L 108.882813 200.210938 L 108.394531 199.636719 L 109.019531 198.796875 L 109.828125 198.933594 L 110.925781 200.023438 L 110.886719 200.34375 Z M 126.28125 205.292969 L 125.425781 204.925781 L 125.964844 203.972656 L 127.460938 203.816406 Z M 124.210938 210.34375 L 123.886719 210.195313 L 123.703125 208.738281 L 124.363281 207.855469 L 125.195313 207.875 L 124.746094 209.816406 Z M 123.617188 214.058594 L 122.984375 212.667969 L 123.699219 210.636719 L 124.601563 210.957031 Z M 121.039063 215.25 L 120.660156 215.011719 L 121.074219 214.335938 L 122.558594 213.628906 L 122.597656 214.804688 Z M 108.632813 220.585938 L 107.019531 220.113281 L 107.886719 218.253906 L 109.5625 216.582031 L 110.6875 216.390625 L 109.234375 220.105469 Z M 138.585938 236.417969 L 136.191406 233.714844 L 134.316406 229.121094 L 134.167969 227.941406 L 134.976563 227.019531 L 137.40625 229.132813 L 138.472656 231 L 139.152344 233.898438 L 139.027344 236.011719 Z M 138.585938 236.417969 "/>
<path style="fill:none;stroke-width:0.75;stroke-linecap:round;stroke-linejoin:round;stroke:rgb(0%,0%,0%);stroke-opacity:1;stroke-miterlimit:10;" d="M 152.152344 357.597656 L 150.738281 357.488281 L 148.679688 355.054688 L 146.371094 350.484375 L 146.582031 345.007813 L 149.183594 343.835938 L 150.625 343.589844 L 154.457031 344.722656 L 156.042969 348.5625 L 160.894531 349.5625 L 159.296875 352.09375 L 155.984375 354.199219 Z M 146.035156 352.113281 L 145.246094 351.246094 L 143.339844 350.050781 L 142.90625 349.054688 L 143.363281 348.167969 L 144.808594 348.117188 L 145.761719 349.351563 L 146.5625 351.371094 Z M 141.941406 313.976563 L 141.667969 313.425781 L 143.96875 306.675781 L 146.644531 304.929688 L 149.289063 299.773438 L 150.476563 298.886719 L 153.898438 297.664063 L 155.144531 303.238281 L 152.609375 308.289063 L 149.882813 310.96875 L 146.164063 313.53125 L 143.976563 312.933594 Z M 301.980469 439.003906 L 298.082031 438.289063 L 297.125 436.816406 L 297.464844 435.167969 L 302.152344 436.222656 L 303.359375 438.136719 Z M 140.089844 448.488281 L 139.785156 448.15625 L 139.980469 446.871094 L 140.289063 446.792969 L 140.601563 448.222656 Z M 248.355469 467.488281 L 246.523438 466.984375 L 248.015625 464.875 L 248.742188 465.394531 L 249.070313 467.195313 Z M 238.972656 476.671875 L 232.710938 472.625 L 230.460938 472.949219 L 231.824219 471.328125 L 238.109375 467.761719 L 243.742188 469.261719 L 245.488281 471.558594 L 242.332031 475.566406 L 240.953125 476.265625 Z M 88.679688 504 L 88.828125 503.207031 L 89.230469 502.996094 L 89.664063 503.71875 Z M 244.335938 7.933594 L 242.042969 7.917969 L 241.347656 7.296875 L 241.875 2.347656 L 243.210938 0 L 244.851563 0.152344 L 245.730469 0.675781 L 245.960938 1.191406 Z M 238.304688 16.75 L 237.496094 16.582031 L 236.777344 14.835938 L 236.46875 10.359375 L 238.035156 5.589844 L 239.238281 5.34375 L 240.742188 5.824219 L 240.984375 9.007813 L 240.113281 16.105469 Z M 236.71875 28.878906 L 238.035156 32.449219 L 237.558594 33.191406 L 237 32.953125 L 236.054688 34.566406 L 235.90625 38.296875 L 234.875 46.269531 L 233.976563 45.984375 L 232.296875 43.921875 L 233.371094 39.371094 L 233.925781 38.769531 L 234.875 34.386719 L 234.148438 28.148438 L 231.398438 27.542969 L 232.488281 28.707031 L 232.625 30.433594 L 230.554688 32.375 L 228.882813 30.980469 L 228.890625 30.066406 L 225.527344 28.707031 L 224.863281 26.4375 L 224.902344 26.039063 L 225.730469 25.347656 L 230.984375 24.460938 L 232.847656 23.578125 L 233.425781 22.8125 L 230.496094 18 L 226.6875 17.277344 L 227.105469 15.832031 L 231.117188 11.28125 L 233.710938 9.785156 L 234.050781 10.867188 L 233.917969 16.546875 L 234.144531 17.472656 L 239.882813 18.652344 L 238.523438 26.492188 L 237.078125 27.324219 L 236.359375 26.753906 Z M 196.894531 75.144531 L 197.015625 73.867188 L 195.519531 72.570313 L 194.683594 72.390625 L 194.554688 73.058594 L 194.019531 73.59375 L 192.234375 70.300781 L 196.46875 71.835938 L 197.578125 73.320313 L 197.488281 74.183594 Z M 201.433594 77.261719 L 201.335938 75.855469 L 203.695313 72.339844 L 204.585938 71.769531 L 208.230469 71.34375 L 208.511719 72.878906 L 205.992188 74.476563 L 203.011719 74.863281 Z M 197.957031 91.402344 L 194.496094 88.542969 L 192.398438 88.679688 L 189.230469 89.828125 L 185.507813 87.160156 L 185.011719 84.90625 L 185.527344 80.464844 L 186.328125 79.578125 L 189.089844 78.738281 L 192.066406 80.039063 L 193.90625 82.484375 L 195.082031 85.816406 L 197.34375 86.90625 L 198.75 88.042969 L 199.625 89.617188 Z M 188.082031 96.050781 L 186.410156 95.902344 L 183.359375 91.503906 L 183.707031 89.988281 L 184.199219 89.394531 L 185.710938 88.945313 L 188.566406 91.480469 L 190.394531 94.761719 L 190.367188 95.574219 Z M 195.09375 98.28125 L 194.128906 97.324219 L 192.800781 94.15625 L 193.59375 93.472656 L 196.132813 93.261719 L 196.664063 94.109375 L 195.714844 98.109375 Z M 107.363281 131.085938 L 107.339844 131.460938 L 104.863281 132.640625 L 102.640625 131.890625 L 101.886719 129.820313 L 101.828125 127.953125 L 103.109375 126.21875 L 104.816406 126.179688 L 102.523438 125.671875 L 100.4375 128.28125 L 101.234375 130.539063 L 102.222656 131.667969 L 102.503906 133.914063 L 100.519531 136.328125 L 94.167969 140.53125 L 90.960938 136.171875 L 90.914063 135.070313 L 92.324219 135.964844 L 98.417969 132.683594 L 97.3125 131.128906 L 96 130.230469 L 94.800781 129.6875 L 93.535156 129.878906 L 92.585938 129.378906 L 91.738281 128.320313 L 93.273438 126.738281 L 91.894531 121.296875 L 93.882813 117.457031 L 94.609375 116.683594 L 97.554688 118.082031 L 96.78125 119.175781 L 98.316406 123.210938 L 98.289063 119.726563 L 100.015625 119.046875 L 101.320313 119.632813 L 101.5 119.089844 L 100.15625 116.082031 L 99.984375 115.125 L 100.546875 114.128906 L 103.742188 112.164063 L 104.25 112.226563 L 104.355469 112.542969 L 106.78125 111.714844 L 112.96875 106.726563 L 114.304688 105.246094 L 115.136719 106.0625 L 116.316406 109.667969 L 114.394531 114.332031 L 112 116.703125 L 111.804688 118.003906 L 113.027344 118.671875 L 114.433594 118.257813 L 115.808594 117.085938 L 116.296875 117.480469 L 115.917969 119.058594 L 114.191406 120.570313 L 113.214844 120.832031 L 111.632813 120.445313 L 110.640625 121.507813 L 110.171875 122.820313 L 107.25 124.128906 L 104.179688 124.648438 L 104.796875 124.855469 L 107.226563 124.59375 L 109.753906 123.957031 L 110.578125 127.351563 L 107.820313 130.199219 Z M 99.210938 118.707031 L 98.386719 118.4375 L 98.136719 116.273438 L 98.996094 116.449219 L 100.351563 118.035156 L 100.300781 118.71875 Z M 92.332031 133.3125 L 92.394531 132.460938 L 93.472656 131.636719 L 94.449219 131.566406 L 94.003906 133.265625 Z M 54.898438 133.773438 L 54.035156 133.324219 L 53.960938 132.394531 L 55.496094 133.011719 Z M 88.472656 141.214844 L 88.128906 140.917969 L 88.699219 140.171875 L 89.691406 139.804688 L 90 140.542969 Z M 87.039063 150.351563 L 84.855469 150.105469 L 84.898438 148.296875 L 82.835938 147.015625 L 81.1875 147.144531 L 79.707031 145.832031 L 79.660156 145.476563 L 81.351563 142.984375 L 86.558594 143.191406 L 87.382813 142.296875 L 88.8125 141.929688 L 91.46875 144.226563 L 91.675781 144.65625 L 89.226563 149.988281 L 89.046875 150.234375 Z M 120.59375 171.152344 L 118.382813 174.128906 L 116.214844 174.765625 L 115.726563 173.222656 L 117.464844 169.808594 L 116.171875 167.53125 L 114.847656 169.9375 L 112.46875 167.632813 L 108.960938 168.023438 L 105.941406 162.898438 L 105.199219 161 L 107.007813 159.628906 L 108.851563 161.457031 L 109.378906 161.53125 L 109.511719 161.226563 L 104.21875 156.03125 L 103.136719 157.085938 L 103.289063 158.671875 L 102.929688 159.4375 L 99.675781 157.597656 L 99.421875 155.925781 L 98.203125 154.597656 L 98.066406 153.667969 L 102.238281 146.710938 L 102.777344 146.785156 L 103.640625 147.851563 L 104.050781 149.589844 L 106.277344 151.484375 L 107.097656 151.71875 L 108.515625 150.917969 L 108.246094 147.238281 L 107.714844 145.585938 L 109.742188 143.519531 L 110.773438 143.519531 L 113.621094 147.035156 L 114.421875 149.246094 L 114.363281 153.136719 L 113.859375 156.84375 L 114.097656 161.421875 L 119.960938 164.882813 L 123.476563 163.359375 L 126.054688 164.40625 L 125.304688 167.015625 L 121.730469 170.683594 Z M 118.578125 151.953125 L 118.164063 151.511719 L 118.160156 150.738281 L 118.4375 149.746094 L 118.980469 149.195313 L 119.167969 149.566406 Z M 116.058594 160.6875 L 115.6875 160.574219 L 115.417969 159.507813 L 115.804688 155.730469 L 117.007813 152.945313 L 117.769531 152.214844 L 118.375 153 L 117.660156 159.589844 L 117.210938 160.261719 Z M 85.414063 155.175781 L 84.503906 154.921875 L 82.890625 153.746094 L 82.539063 152.875 L 82.648438 151.679688 L 83.882813 150.820313 L 86.675781 151.59375 L 87.605469 152.390625 L 87.449219 154.515625 Z M 86.125 168.429688 L 85.660156 169.3125 L 84.265625 168.675781 L 82.503906 168.859375 L 81.898438 168.371094 L 81.679688 167.589844 L 81.242188 164.679688 L 81.8125 155.605469 L 83.308594 154.828125 L 85.292969 155.929688 L 86.6875 157.878906 L 85.9375 158.519531 L 85.144531 158.015625 L 85.023438 158.644531 L 85.140625 166.578125 Z M 118.566406 163.007813 L 117.332031 162.441406 L 116.832031 161.714844 L 116.9375 161.203125 L 117.636719 160.960938 L 119.058594 161.546875 L 119.296875 162.503906 Z M 101.886719 172.851563 L 101.394531 172.480469 L 102.761719 171.785156 L 104.179688 172.382813 Z M 79.117188 175.976563 L 77.03125 175.496094 L 76.832031 174.882813 L 80.085938 170.703125 L 80.8125 171.421875 L 81.558594 174.410156 L 79.828125 175.941406 Z M 108.226563 178.375 L 107.136719 177.738281 L 105.015625 175 L 106.875 172.984375 L 108.363281 172.796875 L 109.730469 173.464844 L 110.214844 174.398438 L 109.839844 177.25 L 109.25 177.960938 Z M 112.058594 181.640625 L 110.785156 180.722656 L 110.746094 179.980469 L 112.511719 178.136719 L 113.390625 178.773438 L 113.5 179.308594 L 113.101563 181.015625 Z M 97.878906 195.328125 L 97.429688 194.160156 L 99.773438 191.78125 L 102.582031 189.742188 L 103.945313 189.507813 L 103.984375 189.992188 L 102.621094 192.410156 L 100.511719 194.210938 Z M 112.527344 191.859375 L 114.011719 192.617188 L 115.425781 195.144531 L 115.960938 196.988281 L 118.835938 198.328125 L 120.421875 198.710938 L 123.929688 201.773438 L 123.621094 203.992188 L 122.046875 206.285156 L 118.703125 208.105469 L 117.753906 207.574219 L 118.488281 206.28125 L 117.726563 206.046875 L 114.15625 208.039063 L 107.617188 209.777344 L 106.175781 209.441406 L 105.144531 207.296875 L 105.273438 206.320313 L 105.636719 206.019531 L 107.183594 205.976563 L 107.628906 206.585938 L 108.632813 207.074219 L 114.269531 205.019531 L 114.078125 204.402344 L 111.738281 205.324219 L 109.949219 205.371094 L 109.546875 204.347656 L 111.230469 202.125 L 114.683594 200.492188 L 115.015625 199.273438 L 114.636719 199.136719 L 111.785156 200.023438 L 106.574219 196.3125 L 107.195313 193.726563 L 110.71875 192.085938 L 111.921875 191.707031 Z M 92 200.367188 L 89.996094 199.730469 L 89.738281 197.433594 L 90.574219 196.792969 L 95.953125 195.570313 L 96.46875 196.875 L 94.460938 197.148438 L 92.539063 198.710938 Z M 109.882813 200.621094 L 108.882813 200.210938 L 108.394531 199.636719 L 109.019531 198.796875 L 109.828125 198.933594 L 110.925781 200.023438 L 110.886719 200.34375 Z M 126.28125 205.292969 L 125.425781 204.925781 L 125.964844 203.972656 L 127.460938 203.816406 Z M 103.992188 207.546875 L 103.339844 207.101563 L 103.917969 206.167969 L 104.6875 205.714844 L 104.851563 205.945313 Z M 124.210938 210.34375 L 123.886719 210.195313 L 123.703125 208.738281 L 124.363281 207.855469 L 125.195313 207.875 L 124.746094 209.816406 Z M 123.617188 214.058594 L 122.984375 212.667969 L 123.699219 210.636719 L 124.601563 210.957031 Z M 121.039063 215.25 L 120.660156 215.011719 L 121.074219 214.335938 L 122.558594 213.628906 L 122.597656 214.804688 Z M 113.917969 232.058594 L 112.480469 231.820313 L 111.324219 230.820313 L 111.128906 227.746094 L 111.441406 226.457031 L 114.644531 221.148438 L 118.992188 217.386719 L 121.78125 215.628906 L 122.253906 216.816406 L 122.054688 217.695313 L 120.511719 219.617188 L 115.933594 227.789063 Z M 108.632813 220.585938 L 107.019531 220.113281 L 107.886719 218.253906 L 109.5625 216.582031 L 110.6875 216.390625 L 109.234375 220.105469 Z M 105.394531 241.582031 L 104.050781 240.722656 L 106.496094 232.25 L 104.332031 231.855469 L 102.703125 234.6875 L 101.117188 236.308594 L 100.152344 236.789063 L 99.558594 236.117188 L 100.078125 233.757813 L 101.835938 228.285156 L 103.761719 227.667969 L 105.308594 228.039063 L 108.519531 225.777344 L 110.203125 225.078125 L 110.453125 225.648438 L 110.253906 227.628906 L 110.570313 230.984375 L 110.863281 232.085938 L 111.8125 233.058594 L 112.25 236.964844 L 110.800781 238.3125 Z M 138.585938 236.417969 L 136.191406 233.714844 L 134.316406 229.121094 L 134.167969 227.941406 L 134.976563 227.019531 L 137.40625 229.132813 L 138.472656 231 L 139.152344 233.898438 L 139.027344 236.011719 Z M 134.066406 249.789063 L 132.492188 249.675781 L 129.726563 247.464844 L 128.433594 241.566406 L 129.089844 238.433594 L 131.445313 236.3125 L 132.910156 236.523438 L 134.902344 238.214844 L 136.617188 243.988281 L 136.65625 248.703125 L 135.886719 249.445313 Z M 198.578125 428.625 L 197.125 430.195313 L 193.261719 431.816406 L 191.199219 432.125 L 189.828125 431.929688 L 185.476563 434.261719 L 184.402344 435.960938 L 184.015625 437.964844 L 183.378906 438.613281 L 180.808594 439.304688 L 177.042969 439.234375 L 173.023438 438.316406 L 172.515625 437.945313 L 167.160156 432.269531 L 164.640625 427.769531 L 161.011719 428.191406 L 154.136719 431.117188 L 153.972656 431.589844 L 151.917969 430.390625 L 151.609375 427.894531 L 153.351563 426.890625 L 154.996094 427.441406 L 156.6875 426.9375 L 157.902344 426.300781 L 158.246094 425.511719 L 157.949219 424.972656 L 152.539063 424.828125 L 147.617188 421.871094 L 143.628906 421.875 L 140.683594 422.476563 L 140.179688 424.882813 L 139.621094 425.625 L 137.433594 426.394531 L 135.984375 425.691406 L 135.179688 425.894531 L 132.800781 427.96875 L 129.675781 426.625 L 130.636719 424.421875 L 132.113281 424.148438 L 135.335938 422.53125 L 134.726563 420.960938 L 134.097656 422.457031 L 131.007813 422.839844 L 125.820313 422.34375 L 124.257813 421.28125 L 127.085938 419.792969 L 128.207031 419.761719 L 128.527344 419.207031 L 127.953125 415.671875 L 126.226563 414.875 L 124.203125 414.761719 L 124.863281 412.660156 L 129.03125 410.75 L 129.679688 409.164063 L 136.714844 408.5625 L 138.644531 406.351563 L 139.59375 404.570313 L 141.570313 403.402344 L 145.628906 403.523438 L 146.550781 403.234375 L 154.234375 398.324219 L 157.222656 394.429688 L 158.210938 392.265625 L 159.445313 387.476563 L 158.945313 384.328125 L 157.6875 381.878906 L 158.347656 379.785156 L 159.929688 376.773438 L 157.367188 372.90625 L 157.8125 369.28125 L 158.34375 368.472656 L 157.941406 367.53125 L 155.144531 367.421875 L 150.027344 368.660156 L 148.210938 369.980469 L 146.359375 372.792969 L 140.675781 373.152344 L 140.128906 372.753906 L 141.304688 370.609375 L 144.324219 367.328125 L 145.265625 366.675781 L 146.953125 366.183594 L 151.839844 361.910156 L 152.722656 358.183594 L 156.59375 353.949219 L 158.253906 352.902344 L 160.242188 353.113281 L 166.214844 350.582031 L 169.605469 350.398438 L 173.582031 350.863281 L 179.234375 348.132813 L 180.675781 347.992188 L 181.265625 348.027344 L 187.105469 352.71875 L 187.671875 351.628906 L 184.707031 346.285156 L 185.3125 345.609375 L 188.136719 345.195313 L 188.820313 345.460938 L 189.261719 346.730469 L 190.320313 347.21875 L 191.589844 349.867188 L 193.242188 351.0625 L 196.195313 350.761719 L 198.324219 348.101563 L 197.863281 347.992188 L 196.527344 348.507813 L 196.144531 348.96875 L 194.066406 349.433594 L 191.304688 347.554688 L 187.175781 338.613281 L 190.828125 332.078125 L 193.042969 330.742188 L 192.734375 330.273438 L 190.089844 330.148438 L 188.875 328.75 L 188.660156 327.625 L 188.925781 322.199219 L 189.300781 321.496094 L 192.257813 320.171875 L 195.035156 313.964844 L 195.507813 311.289063 L 195.65625 307.578125 L 192.304688 310.851563 L 186.339844 313.984375 L 184.335938 313.179688 L 179.507813 304.824219 L 178.90625 301.496094 L 173.652344 293.773438 L 175.542969 287.753906 L 180.824219 276.628906 L 183.398438 274.152344 L 185.863281 273.679688 L 187.410156 274.570313 L 188.292969 274.46875 L 190.359375 273.957031 L 190.464844 272.796875 L 189.722656 272.355469 L 187.242188 273.007813 L 181.453125 272.605469 L 179.207031 271.863281 L 175.851563 271.585938 L 174.535156 276.921875 L 172.394531 276.601563 L 169.25 278.019531 L 167.65625 280 L 165.046875 281.789063 L 161.546875 281.570313 L 160.476563 281.214844 L 154.90625 277.179688 L 154.078125 275.898438 L 154.097656 274.957031 L 153.789063 274.804688 L 152.9375 275.9375 L 152.757813 276.835938 L 153.175781 278.605469 L 154.464844 281.191406 L 154.753906 284.167969 L 154.183594 285.398438 L 153.578125 285.597656 L 150.425781 284.226563 L 149.117188 282.5625 L 149.015625 281.902344 L 148.074219 280.539063 L 145.902344 279.554688 L 144.339844 278.472656 L 142.445313 276.539063 L 141.4375 276.175781 L 139.335938 277.664063 L 138.363281 279.339844 L 139.839844 283.894531 L 140.652344 284.792969 L 140.894531 287.175781 L 140.660156 287.363281 L 138.445313 286.058594 L 138.097656 284.789063 L 138.472656 283.875 L 138.351563 282.824219 L 137.140625 280.890625 L 134.371094 277.707031 L 132.984375 274.765625 L 132.65625 272.726563 L 133.101563 269.683594 L 136.394531 267.6875 L 137.710938 263.625 L 141.753906 259.753906 L 142.660156 255.273438 L 145.15625 251.203125 L 148.085938 249.820313 L 148.890625 247.757813 L 148.679688 246.394531 L 146.964844 242.199219 L 143.925781 240.167969 L 141.34375 237.671875 L 142.753906 226.613281 L 144.929688 225.925781 L 147.269531 226.910156 L 150.789063 227.628906 L 153.097656 227.710938 L 145.519531 224.695313 L 144.640625 224.816406 L 143.503906 224.300781 L 143.285156 222.1875 L 143.535156 220.402344 L 144.421875 218.453125 L 143.40625 218.761719 L 142.359375 224.488281 L 140.03125 229.75 L 138.8125 229.53125 L 135.089844 226.601563 L 134.222656 226.898438 L 133.699219 227.808594 L 133.507813 229.089844 L 134.121094 231 L 133.964844 231.328125 L 131.53125 230.089844 L 130.683594 227.515625 L 131.742188 222.800781 L 134.730469 217.839844 L 140.886719 212.71875 L 142.355469 210.867188 L 139.386719 212.691406 L 133.796875 217.71875 L 129.589844 223.042969 L 128.75 222.847656 L 128.523438 222.449219 L 129.304688 234.644531 L 127.433594 236.644531 L 126.269531 239.480469 L 123.921875 249.996094 L 124.863281 252.496094 L 123.378906 254.515625 L 122.585938 254.976563 L 118.40625 255.402344 L 117.507813 254.746094 L 117.566406 250.78125 L 119.664063 248.570313 L 120.484375 241.714844 L 123.363281 233.957031 L 121.746094 231.625 L 121.960938 226.757813 L 124.742188 222.117188 L 125.003906 221.082031 L 123.535156 221.78125 L 122.257813 223.9375 L 122.054688 223.058594 L 126.875 214.460938 L 126.597656 214.238281 L 125.214844 215.382813 L 124.59375 215.363281 L 124.875 210.660156 L 125.617188 207.742188 L 127.125 204.808594 L 129.8125 202.917969 L 132.109375 202.882813 L 132.683594 203.214844 L 134.953125 203.035156 L 138.011719 199.828125 L 139.109375 197.320313 L 138.628906 197.6875 L 137.820313 199.589844 L 135.449219 202.207031 L 134.617188 202.308594 L 130.480469 200.828125 L 131.128906 198.882813 L 131.464844 199.1875 L 132.269531 199.109375 L 134.558594 197.433594 L 132.878906 197.183594 L 131.847656 197.785156 L 131.234375 197.257813 L 131.121094 196.003906 L 133.035156 192.671875 L 137.945313 186.585938 L 138.351563 185.480469 L 126.386719 197.742188 L 123.375 199.753906 L 122.894531 198.808594 L 118.210938 196.703125 L 117.066406 195.875 L 115.238281 193.453125 L 115.261719 192.613281 L 116.15625 192.019531 L 118.523438 191.910156 L 123.277344 190.957031 L 126.9375 191.023438 L 127.226563 190.910156 L 127.078125 190.628906 L 121.742188 189.519531 L 119.449219 190.875 L 117.636719 191.058594 L 110.703125 190.375 L 109.890625 189.640625 L 109.699219 188.476563 L 110.929688 187.117188 L 117.046875 186.007813 L 118.21875 187.238281 L 119.496094 187.996094 L 121.011719 185.882813 L 119.757813 184.949219 L 119.691406 184.015625 L 122.300781 183.472656 L 123.191406 183.664063 L 124.609375 182.566406 L 124.4375 182.027344 L 122.796875 181.121094 L 119.210938 181.621094 L 118.136719 181.121094 L 120.769531 176.019531 L 121.394531 175.566406 L 123.121094 175.621094 L 123.480469 176.363281 L 125.417969 177.632813 L 127.398438 177.246094 L 128.59375 176.648438 L 125.753906 177.03125 L 122.046875 173.832031 L 122.261719 172.511719 L 123.710938 170.960938 L 125.625 170.914063 L 128.484375 172.390625 L 131.898438 171.726563 L 131.394531 171.144531 L 129.847656 171.324219 L 128.125 171.042969 L 125.730469 168.8125 L 126 165.410156 L 128.464844 164.527344 L 128.734375 165.015625 L 130.910156 166.300781 L 131.441406 166.484375 L 132.027344 165.980469 L 129.460938 163.617188 L 128.003906 163.234375 L 127.421875 161.042969 L 128.0625 160.984375 L 130.972656 158.601563 L 131.363281 157.070313 L 129.988281 157.894531 L 123.167969 160.371094 L 121.980469 159.191406 L 120.976563 153.769531 L 122.015625 149.472656 L 122.753906 149.203125 L 123.574219 149.691406 L 124.183594 150.925781 L 126.570313 152.738281 L 127.375 152.003906 L 130.175781 151.6875 L 129.554688 150.839844 L 126.851563 150.695313 L 126.199219 150.957031 L 122.917969 146.5 L 123.242188 137.957031 L 123.761719 136.4375 L 124.886719 135.917969 L 125.832031 135.878906 L 126.605469 136.996094 L 126.988281 139.820313 L 128.101563 140.863281 L 128.410156 140.777344 L 129.105469 137.890625 L 128.046875 136.800781 L 127.640625 135.59375 L 127.699219 134.574219 L 128.582031 133.507813 L 132.222656 136.710938 L 132.988281 134.796875 L 135.304688 133.984375 L 138.25 135.054688 L 140.40625 136.617188 L 140.976563 137.507813 L 141.125 136.714844 L 139.046875 132.886719 L 137.289063 131.742188 L 134.09375 128.792969 L 132.792969 126.621094 L 133.136719 125.824219 L 133.546875 125.625 L 136.105469 127.34375 L 136.648438 127.265625 L 137.117188 126.679688 L 137.402344 123.492188 L 136.839844 123.359375 L 134.628906 118.984375 L 134.769531 118.203125 L 139.363281 118.828125 L 142.621094 118.335938 L 141.332031 117.214844 L 140.289063 114.261719 L 142.222656 106.988281 L 145.164063 101.695313 L 150.597656 102.921875 L 152.222656 105.082031 L 152.765625 106.691406 L 150.574219 110 L 150.667969 110.417969 L 154.53125 106.8125 L 154.820313 104.886719 L 155.566406 104.398438 L 157.699219 105.175781 L 158.539063 105.660156 L 158.808594 106.210938 L 162.480469 106.625 L 167.285156 105.773438 L 174.464844 105.449219 L 176.234375 103.820313 L 177.558594 103.066406 L 179.601563 103.011719 L 180.136719 103.617188 L 184.6875 104.359375 L 185.050781 103.402344 L 184.515625 102.859375 L 185.019531 101.335938 L 193.1875 102.292969 L 192.089844 111.035156 L 190.40625 114.957031 L 188.238281 117.941406 L 184.40625 119.285156 L 183.003906 120.664063 L 180.59375 124.378906 L 168.480469 133.910156 L 168.085938 134.996094 L 168.558594 136.171875 L 167.921875 137.742188 L 165.300781 138.449219 L 162.285156 137.449219 L 158.652344 135.695313 L 159.730469 137.917969 L 161.246094 138.625 L 167.148438 140.199219 L 170.035156 140.605469 L 171.324219 140.277344 L 172.15625 139.863281 L 172.945313 138.414063 L 173.847656 138.332031 L 173.761719 139.027344 L 172.589844 140.945313 L 168.613281 145.636719 L 168.027344 145.863281 L 167.539063 145.554688 L 167.683594 144.535156 L 167.332031 144.0625 L 165.667969 144.359375 L 160.648438 146.496094 L 157.550781 149.769531 L 157.023438 150.988281 L 157.230469 151.203125 L 161.800781 147.230469 L 163.261719 146.722656 L 166.003906 147.089844 L 166.824219 148.164063 L 162.574219 152.988281 L 161.777344 154.640625 L 162.144531 155.15625 L 162.851563 155.332031 L 163.8125 154.859375 L 166.910156 152.140625 L 174.085938 149.191406 L 176.960938 148.386719 L 176.972656 148.839844 L 178.117188 148.726563 L 180.304688 147.085938 L 180.796875 145.429688 L 185.75 144.769531 L 186.433594 145.765625 L 187.363281 146.386719 L 191.851563 147.832031 L 195.460938 145.804688 L 207.820313 147.808594 L 213.152344 147.726563 L 214.800781 146.390625 L 217.230469 146.558594 L 219.816406 147.640625 L 222.222656 151.90625 L 223.429688 155.980469 L 223.457031 157.5 L 218.816406 163.339844 L 216.417969 168.628906 L 215.890625 171.75 L 216.085938 172.535156 L 215.421875 175.515625 L 212.957031 179.949219 L 212.769531 181.300781 L 213.050781 182.578125 L 212.195313 184.910156 L 209.742188 188.101563 L 207.839844 189.355469 L 205.578125 191.957031 L 205.960938 192.835938 L 206.335938 192.6875 L 206.3125 193.265625 L 205.273438 196.652344 L 204.273438 198.292969 L 199.265625 202.414063 L 193.140625 203.863281 L 190.265625 204.011719 L 184.84375 208.304688 L 185.175781 208.839844 L 187.035156 208.28125 L 192.160156 205.796875 L 194.148438 204.183594 L 195.042969 204.105469 L 196.980469 204.710938 L 197.242188 205.835938 L 196.777344 207.738281 L 197.140625 209.097656 L 198.929688 210.035156 L 201.175781 210.429688 L 202.746094 212.082031 L 202.726563 212.699219 L 200.242188 215.140625 L 197.378906 216.386719 L 196.175781 216.554688 L 194.808594 215.6875 L 193.019531 215.648438 L 188.328125 219.691406 L 187.824219 220.988281 L 181.566406 224.328125 L 176.671875 222.183594 L 172.65625 222.0625 L 172.933594 223.371094 L 174.554688 224.417969 L 185.117188 226.226563 L 190.347656 227.617188 L 194.089844 226.074219 L 195.292969 223.585938 L 196.472656 222.441406 L 197.464844 222.246094 L 201.386719 222.59375 L 208.007813 227.183594 L 215.703125 231.371094 L 218.304688 236.507813 L 222.515625 242.1875 L 222.992188 242.316406 L 223.171875 242.054688 L 224.429688 242.605469 L 227.410156 244.644531 L 228.816406 249.058594 L 229.046875 252.113281 L 228.367188 253.691406 L 230.675781 264.636719 L 231.605469 267.738281 L 233.453125 271.589844 L 234.300781 272.652344 L 236.636719 282.507813 L 240.25 287.757813 L 256.574219 295.371094 L 257.9375 296.980469 L 259.574219 300.09375 L 261.75 305.679688 L 265.089844 309.367188 L 269.105469 311.226563 L 270.273438 312.136719 L 267.613281 313.613281 L 266.703125 315.183594 L 266.570313 316.734375 L 267.878906 321.035156 L 269.144531 323.683594 L 276.84375 334.457031 L 277.191406 336.085938 L 276.296875 337.386719 L 276.804688 335.734375 L 275.972656 334.855469 L 273.753906 333.953125 L 271.53125 334.800781 L 270.597656 334.761719 L 269.011719 333.710938 L 266.460938 330.355469 L 265.3125 329.738281 L 257.730469 331.277344 L 256.695313 330.34375 L 255.421875 330.253906 L 253.0625 331.664063 L 253.785156 332.28125 L 258.5625 332.226563 L 262.105469 331.097656 L 264.644531 330.8125 L 267.230469 334.554688 L 273.851563 340 L 276.550781 341.546875 L 277.21875 341.527344 L 279.78125 344.945313 L 282.9375 352.570313 L 283.535156 355.90625 L 283.183594 358.933594 L 278.605469 363.105469 L 274.777344 367.484375 L 273.921875 369.261719 L 276.332031 368.71875 L 278.589844 370.019531 L 280.742188 372.933594 L 284.273438 373.554688 L 284.707031 373.488281 L 286.089844 371.390625 L 286.4375 369.417969 L 287.699219 366.136719 L 289.097656 364.757813 L 292.480469 364.171875 L 298.394531 364.328125 L 299.371094 365.011719 L 302.007813 364.878906 L 309.804688 365.710938 L 312.992188 367.136719 L 320.691406 372.777344 L 322.089844 374.953125 L 323.554688 379.320313 L 324.039063 386.941406 L 323.601563 389.03125 L 323.726563 389.878906 L 322.542969 393.042969 L 320.101563 404.78125 L 313.242188 411.992188 L 311.554688 409.277344 L 308.503906 407.671875 L 308.222656 407.800781 L 309.746094 411.101563 L 311.890625 414.246094 L 312.34375 414.394531 L 312.183594 415.445313 L 310.476563 417.664063 L 307.914063 419.261719 L 305.558594 419.660156 L 305.1875 419.570313 L 303.632813 417.15625 L 300.148438 419.734375 L 295.566406 422.425781 L 297.3125 423.664063 L 300.289063 422.609375 L 301.355469 421.507813 L 302.214844 421.28125 L 302.679688 421.867188 L 303.007813 427.390625 L 300.914063 429.578125 L 298.5 431.386719 L 297.851563 431.539063 L 294.410156 430.957031 L 289.144531 432.703125 L 286.84375 435.214844 L 288.613281 435.105469 L 289.578125 433.65625 L 291.226563 433.328125 L 292.949219 433.292969 L 295.929688 433.960938 L 296.761719 434.652344 L 296.613281 435.441406 L 294.316406 435.460938 L 291.988281 436.875 L 292.609375 437.832031 L 296.28125 438.28125 L 302.179688 439.757813 L 304.902344 439.324219 L 306.707031 438.269531 L 316.035156 436.984375 L 317.375 439.554688 L 317.144531 446.199219 L 316.675781 447.808594 L 315.664063 449.132813 L 313.054688 450.410156 L 311.835938 450.554688 L 308.375 451.917969 L 306.820313 453.105469 L 305.390625 454.699219 L 304.972656 455.632813 L 304.707031 456.960938 L 304.980469 458.636719 L 301.523438 459.070313 L 299.300781 458.691406 L 295.917969 461.886719 L 293.164063 462.992188 L 289.1875 463.898438 L 286.828125 465.019531 L 284.617188 468.003906 L 283.777344 468.390625 L 272.492188 464.976563 L 269.046875 464.6875 L 256.738281 467.042969 L 254.667969 467.789063 L 254.03125 468.40625 L 253.804688 469.503906 L 253.21875 469.695313 L 249.835938 467.570313 L 250.289063 466.761719 L 251.1875 466.222656 L 249.300781 464.457031 L 242.605469 464.328125 L 242.480469 464.675781 L 243.769531 466.117188 L 243.382813 467.101563 L 242.871094 467.417969 L 237.441406 466.828125 L 229.773438 470 L 227.070313 469.332031 L 219.722656 470.5625 L 217.503906 470.460938 L 216.546875 469.582031 L 215.433594 471.425781 L 218.867188 472.84375 L 219.171875 472.679688 L 219.683594 473.964844 L 219.011719 475.859375 L 216.085938 476.464844 L 213.511719 475.003906 L 211.964844 474.574219 L 206.164063 473.832031 L 204.605469 474.53125 L 204.070313 475.828125 L 204.238281 476.910156 L 205.234375 477.613281 L 204.941406 478.457031 L 204.328125 478.121094 L 203.179688 475.945313 L 198.273438 472.304688 L 193.546875 470.082031 L 190.5625 469.503906 L 188.976563 470.667969 L 183.121094 471.433594 L 181.113281 472.03125 L 175.359375 475.152344 L 174.523438 476.050781 L 173.433594 478.320313 L 168.636719 492.359375 L 166.6875 493.449219 L 163.820313 492.890625 L 163.050781 492.175781 L 161.945313 489.804688 L 159.960938 488.28125 L 158.8125 488.394531 L 157.527344 489.210938 L 156.796875 489.0625 L 153.277344 485.15625 L 147.175781 485.617188 L 145.808594 486.0625 L 144.957031 486.921875 L 144.070313 487.28125 L 138.253906 487.078125 L 135.738281 487.65625 L 132.777344 491.246094 L 129.871094 492.914063 L 126.996094 493.832031 L 126.019531 497.804688 L 126.589844 498.882813 L 126.410156 499.78125 L 125.578125 500.664063 L 123.359375 501.421875 L 122.25 503.65625 L 121.21875 502.773438 L 120.460938 501.464844 L 120.597656 500.117188 L 119.589844 498.238281 L 118.324219 497.164063 L 114.3125 495.417969 L 113.40625 495.324219 L 112.292969 495.867188 L 112.148438 497.691406 L 111.269531 498.707031 L 108.472656 499.285156 L 106.9375 498.382813 L 107.183594 494.882813 L 107.664063 493.796875 L 113.757813 491.121094 L 114.253906 491.3125 L 114.519531 492.046875 L 115.734375 492.285156 L 120.652344 488.789063 L 124.179688 485.753906 L 127.355469 482.183594 L 128.253906 480.15625 L 127.890625 478.578125 L 128.714844 476.535156 L 131.671875 475.15625 L 135.671875 474.511719 L 136.289063 473.59375 L 136.910156 471.164063 L 139.707031 469.046875 L 142.699219 465.902344 L 143.226563 459.34375 L 143.945313 455.265625 L 146.847656 455.648438 L 148.757813 456.625 L 150.367188 455.992188 L 153.234375 452.832031 L 152.886719 447.480469 L 156.113281 446.507813 L 162.910156 446.136719 L 165.589844 445.507813 L 170.628906 446.671875 L 172.1875 446.007813 L 173.785156 446.402344 L 175.886719 447.230469 L 176.484375 448.117188 L 177.257813 448.457031 L 179.839844 448.503906 L 187.816406 447.46875 L 188.394531 445.453125 L 188.503906 442.789063 L 189.910156 439.664063 L 198.894531 430.996094 L 204.191406 423.589844 L 206.496094 422.6875 L 206.875 421.941406 L 206.644531 421.363281 L 206.367188 421.191406 L 204.519531 422.5625 L 201.085938 425.730469 Z M 198.578125 428.625 "/>
</g>
</svg>
