<?xml version="1.0" encoding="UTF-8"?>
<svg xmlns="http://www.w3.org/2000/svg" xmlns:xlink="http://www.w3.org/1999/xlink" width="378pt" height="504pt" viewBox="0 0 378 504" version="1.1">
<g id="data">
<rect x="0" y="0" width="378" height="504" style="fill:rgb(100%,100%,100%);fill-opacity:1;stroke:none;"/>
<path style=" stroke:none;fill-rule:nonzero;fill:rgb(100%,100%,100%);fill-opacity:1;" d="M 53.308594 504 L 324.691406 504 L 324.691406 0 L 53.308594 0 Z M 53.308594 504 "/>
<path style=" stroke:none;fill-rule:nonzero;fill:#42423e;fill-opacity:1;" d="M 200.902344 269.441406 L 201.78125 267.027344 L 203.402344 265.035156 L 205.582031 263.679688 L 208.085938 263.113281 L 210.636719 263.394531 L 212.957031 264.492188 L 214.792969 266.289063 L 216.589844 268.757813 L 217.832031 271.394531 L 218.015625 274.300781 L 217.648438 277.199219 L 218.015625 280.101563 L 218.035156 281.882813 L 217.660156 285.464844 L 217.992188 287.683594 L 217.980469 290.054688 L 217.253906 292.308594 L 215.882813 294.238281 L 213.988281 295.664063 L 211.757813 296.449219 L 209.390625 296.527344 L 206.324219 296.15625 L 204.4375 296.421875 L 202.527344 297.226563 L 200.878906 298.496094 L 200.117188 299.410156 L 199.433594 300.613281 L 198.867188 302.417969 L 198.667969 304.945313 L 198.199219 307.054688 L 197.171875 308.953125 L 195.121094 311.71875 L 194.277344 314.117188 L 194.167969 315.128906 L 194.253906 316.558594 L 194.996094 320.515625 L 195.578125 322.148438 L 196.238281 323.269531 L 197.214844 324.398438 L 198.261719 325.234375 L 200.066406 326.214844 L 202.027344 327.730469 L 203.21875 329.5 L 203.804688 328.398438 L 205.683594 326.652344 L 208.339844 324.90625 L 210.324219 322.648438 L 212.238281 321.070313 L 214.554688 320.175781 L 217.035156 320.0625 L 219.425781 320.738281 L 221.476563 322.132813 L 222.984375 324.105469 L 223.789063 326.453125 L 223.8125 328.933594 L 223.296875 332.332031 L 223.628906 334.585938 L 224.605469 336.640625 L 226.292969 338.476563 L 227.40625 339.214844 L 229.777344 340.289063 L 232.609375 341 L 233.941406 340.996094 L 235.433594 340.695313 L 236.835938 340.105469 L 238.734375 338.820313 L 241.023438 337.765625 L 243.53125 337.5 L 245.988281 338.050781 L 248.171875 338.933594 L 248.292969 338.957031 L 245.550781 339.511719 L 244.589844 338.644531 L 243.40625 338.558594 L 241.210938 339.871094 L 241.886719 340.445313 L 246.324219 340.394531 L 249.617188 339.34375 L 250.117188 339.289063 L 250.488281 339.355469 L 252.753906 340.203125 L 254.382813 342.558594 L 256.203125 344.054688 L 256.417969 344.4375 L 257.035156 346.222656 L 257.703125 347.429688 L 258.566406 348.5 L 259.492188 349.308594 L 260.683594 350.039063 L 261.84375 350.503906 L 263.085938 350.773438 L 264.992188 350.871094 L 265.046875 350.882813 L 266.046875 352.214844 L 268.980469 359.304688 L 269.535156 362.402344 L 269.210938 365.21875 L 264.953125 369.09375 L 261.394531 373.164063 L 260.601563 374.816406 L 262.84375 374.3125 L 264.9375 375.519531 L 266.9375 378.226563 L 270.21875 378.804688 L 270.625 378.746094 L 271.910156 376.796875 L 272.234375 374.960938 L 273.40625 371.914063 L 274.707031 370.632813 L 277.851563 370.085938 L 283.34375 370.234375 L 284.253906 370.867188 L 286.703125 370.742188 L 293.949219 371.515625 L 296.914063 372.84375 L 304.070313 378.085938 L 305.367188 380.105469 L 305.398438 380.195313 L 305.328125 380.457031 L 305.195313 381.855469 L 305.289063 383.0625 L 305.667969 384.523438 L 306.523438 386.359375 L 306.984375 388.148438 L 307.179688 391.25 L 306.777344 393.191406 L 306.890625 393.976563 L 305.789063 396.917969 L 303.519531 407.832031 L 297.144531 414.53125 L 295.578125 412.011719 L 292.742188 410.515625 L 292.480469 410.636719 L 293.898438 413.703125 L 295.890625 416.628906 L 296.3125 416.765625 L 296.296875 416.871094 L 295.765625 417.140625 L 293.59375 417.539063 L 291.398438 417.3125 L 289.355469 416.472656 L 286.667969 414.890625 L 284.429688 414.296875 L 282.355469 414.285156 L 280.347656 414.820313 L 278.757813 415.71875 L 277.386719 417.019531 L 276.375 418.582031 L 275.113281 421.859375 L 274.054688 423.757813 L 272.515625 425.289063 L 270.609375 426.332031 L 268.492188 426.804688 L 266.140625 426.992188 L 263.875 427.652344 L 261.433594 427.953125 L 259.015625 427.476563 L 256.871094 426.261719 L 255.21875 424.4375 L 254.21875 422.1875 L 253.972656 419.738281 L 254.511719 417.332031 L 255.773438 415.21875 L 257.636719 413.609375 L 259.609375 412.390625 L 260.636719 411.441406 L 261.550781 410.195313 L 262.183594 408.828125 L 262.558594 407.222656 L 262.601563 405.71875 L 262.347656 404.238281 L 261.453125 401.960938 L 260.917969 399.238281 L 261.375 396.503906 L 262.765625 394.101563 L 264.40625 392.179688 L 265.234375 390.585938 L 265.675781 388.84375 L 265.71875 387.066406 L 265.488281 385.726563 L 264.230469 381.417969 L 263.558594 380.074219 L 262.789063 379.054688 L 261.523438 377.917969 L 260.234375 377.171875 L 258.664063 376.644531 L 257.207031 376.472656 L 255.46875 376.632813 L 253.855469 377.15625 L 252.390625 378.019531 L 250.527344 379.773438 L 248.539063 381.128906 L 246.234375 381.808594 L 243.828125 381.75 L 241.554688 380.960938 L 239.300781 379.75 L 237.777344 379.316406 L 236.199219 379.207031 L 234.574219 379.445313 L 231.808594 380.550781 L 229.808594 381.050781 L 227.507813 381.3125 L 226.171875 381.734375 L 224.8125 382.476563 L 223.050781 383.949219 L 220.382813 385.402344 L 218.425781 386.011719 L 217.21875 386.640625 L 216.136719 387.46875 L 215.222656 388.476563 L 214.496094 389.628906 L 214.0625 390.691406 L 213.691406 393.074219 L 214.132813 396.359375 L 214.199219 397.382813 L 214.199219 412.890625 L 213.929688 414.917969 L 213.367188 416.996094 L 213.261719 418.519531 L 213.472656 420.117188 L 214.09375 421.832031 L 214.695313 422.835938 L 215.523438 423.804688 L 216.5 424.628906 L 218.148438 425.605469 L 219.851563 426.96875 L 221.109375 428.753906 L 222.441406 431.367188 L 223.671875 432.757813 L 225.660156 434.03125 L 228.972656 434.957031 L 230.65625 435.730469 L 232.253906 434.054688 L 234.042969 432.691406 L 235.539063 431.007813 L 237.519531 429.40625 L 239.910156 428.53125 L 242.457031 428.480469 L 244.921875 428.839844 L 247.570313 428.636719 L 249.902344 428.808594 L 252.074219 429.667969 L 253.894531 431.136719 L 255.191406 433.078125 L 255.851563 435.320313 L 256.175781 437.695313 L 256.980469 439.949219 L 257.425781 442.792969 L 256.800781 445.605469 L 256.21875 446.960938 L 255.039063 448.882813 L 253.359375 450.382813 L 251.320313 451.335938 L 249.09375 451.660156 L 245.214844 451.660156 L 243.046875 451.351563 L 241.046875 450.445313 L 238.167969 448.609375 L 234.875 447.695313 L 233.179688 446.917969 L 231.597656 448.582031 L 229.753906 449.996094 L 228.824219 451.046875 L 228.027344 452.402344 L 227.554688 453.75 L 227.339844 455.15625 L 227.40625 456.707031 L 227.773438 458.195313 L 228.753906 460.277344 L 229.425781 462.554688 L 229.375 464.929688 L 229.09375 465.757813 L 226.691406 465.496094 L 219.566406 468.449219 L 217.054688 467.824219 L 210.222656 468.96875 L 208.164063 468.875 L 207.273438 468.058594 L 206.238281 469.769531 L 209.429688 471.089844 L 209.714844 470.9375 L 210.1875 472.128906 L 209.566406 473.890625 L 206.84375 474.453125 L 204.453125 473.097656 L 203.015625 472.699219 L 201.765625 472.539063 L 201.382813 471.496094 L 201.28125 469.089844 L 201.519531 467.054688 L 201.433594 465.691406 L 201.113281 464.367188 L 200.574219 463.140625 L 199.734375 461.910156 L 198.792969 460.957031 L 197.679688 460.167969 L 196.585938 459.65625 L 194.558594 459.195313 L 192.574219 459.265625 L 190.328125 460.003906 L 187.628906 461.894531 L 185.515625 462.933594 L 183.183594 463.292969 L 179.308594 463.292969 L 176.929688 462.917969 L 174.777344 461.832031 L 172.796875 460.40625 L 171.425781 459.792969 L 169.964844 459.460938 L 167.523438 459.414063 L 165.34375 459.054688 L 163.355469 458.097656 L 161.714844 456.621094 L 160.449219 455.097656 L 158.808594 453.71875 L 157.140625 451.753906 L 156.207031 449.347656 L 156.113281 446.769531 L 156.171875 446.335938 L 157.421875 446.269531 L 159.910156 445.683594 L 164.597656 446.761719 L 166.046875 446.148438 L 167.527344 446.515625 L 169.484375 447.285156 L 170.039063 448.109375 L 170.757813 448.421875 L 173.15625 448.464844 L 180.570313 447.503906 L 181.109375 445.632813 L 181.210938 443.15625 L 182.519531 440.25 L 190.867188 432.195313 L 195.792969 425.3125 L 197.929688 424.472656 L 198.285156 423.78125 L 198.070313 423.238281 L 197.8125 423.082031 L 196.09375 424.355469 L 192.90625 427.300781 L 190.570313 429.988281 L 189.222656 431.449219 L 185.628906 432.957031 L 183.714844 433.246094 L 182.441406 433.0625 L 178.394531 435.230469 L 177.398438 436.808594 L 177.039063 438.671875 L 176.445313 439.273438 L 174.058594 439.917969 L 170.558594 439.851563 L 166.820313 439 L 166.347656 438.652344 L 161.371094 433.375 L 159.03125 429.199219 L 155.65625 429.589844 L 149.269531 432.308594 L 149.113281 432.746094 L 147.203125 431.632813 L 146.917969 429.308594 L 148.539063 428.378906 L 150.066406 428.890625 L 151.640625 428.421875 L 152.765625 427.832031 L 153.085938 427.097656 L 152.808594 426.597656 L 147.785156 426.460938 L 143.210938 423.710938 L 139.503906 423.714844 L 136.765625 424.277344 L 136.292969 426.515625 L 135.777344 427.203125 L 133.742188 427.917969 L 132.394531 427.265625 L 131.648438 427.453125 L 129.4375 429.378906 L 126.53125 428.132813 L 127.425781 426.082031 L 128.796875 425.832031 L 131.792969 424.328125 L 131.226563 422.867188 L 130.640625 424.257813 L 127.769531 424.613281 L 122.949219 424.152344 L 121.832031 423.394531 L 121.746094 423.035156 L 124.125 421.78125 L 125.167969 421.753906 L 125.464844 421.238281 L 124.929688 417.953125 L 123.328125 417.210938 L 122.167969 417.144531 L 122.9375 415.75 L 124.570313 414.160156 L 126.597656 413.113281 L 128.84375 412.703125 L 131.109375 412.960938 L 133.199219 413.871094 L 135.898438 415.550781 L 137.921875 416.136719 L 140.027344 416.152344 L 141.996094 415.609375 L 144.0625 414.316406 L 146.28125 411.726563 L 147.902344 410.296875 L 149.851563 409.371094 L 153.160156 408.335938 L 154.921875 407.140625 L 156.441406 405.246094 L 157.261719 403.148438 L 157.433594 400.875 L 156.929688 398.652344 L 155.792969 396.679688 L 153.484375 394.523438 L 154.199219 391.746094 L 153.734375 388.820313 L 152.566406 386.542969 L 153.179688 384.597656 L 154.652344 381.796875 L 152.269531 378.203125 L 152.683594 374.835938 L 153.175781 374.082031 L 152.804688 373.207031 L 150.203125 373.105469 L 145.449219 374.257813 L 143.757813 375.484375 L 142.039063 378.097656 L 138.027344 378.351563 L 137.207031 376.980469 L 137.101563 376.503906 L 137.339844 376.066406 L 140.148438 373.019531 L 141.023438 372.414063 L 142.589844 371.953125 L 147.132813 367.984375 L 147.953125 364.523438 L 151.550781 360.582031 L 153.09375 359.609375 L 154.941406 359.808594 L 160.492188 357.457031 L 163.644531 357.28125 L 167.339844 357.714844 L 172.597656 355.179688 L 173.933594 355.046875 L 174.484375 355.082031 L 179.910156 359.441406 L 180.433594 358.429688 L 177.679688 353.460938 L 178.242188 352.835938 L 180.804688 352.457031 L 181.265625 352.917969 L 182.355469 354.960938 L 183.4375 358.023438 L 184.648438 360.148438 L 185.761719 361.46875 L 187.015625 362.449219 L 188.5625 363.191406 L 190.214844 363.574219 L 191.910156 363.582031 L 193.503906 363.238281 L 195.3125 362.363281 L 197.546875 360.460938 L 199.378906 359.300781 L 201.457031 358.695313 L 204.765625 358.214844 L 206.65625 357.359375 L 208.359375 355.902344 L 209.558594 354.078125 L 210.152344 352.320313 L 210.738281 347.953125 L 210.75 346.414063 L 210.5 345.007813 L 209.894531 343.460938 L 209 342.113281 L 207.847656 340.980469 L 205.792969 339.675781 L 203.882813 337.960938 L 203.164063 336.664063 L 203.050781 336.957031 L 201.46875 338.867188 L 199.367188 340.175781 L 196.957031 340.757813 L 194.265625 340.964844 L 192.667969 341.464844 L 191.214844 342.296875 L 189.238281 344.136719 L 187.304688 345.449219 L 185.070313 346.128906 L 182.730469 346.109375 L 180.507813 345.398438 L 180.5 345.394531 L 183.371094 340.257813 L 185.429688 339.015625 L 185.140625 338.578125 L 182.683594 338.460938 L 181.554688 337.164063 L 181.355469 336.117188 L 181.601563 331.078125 L 181.949219 330.421875 L 184.695313 329.191406 L 187.28125 323.421875 L 187.71875 320.933594 L 187.855469 317.484375 L 184.742188 320.527344 L 179.199219 323.441406 L 177.335938 322.691406 L 172.851563 314.925781 L 172.289063 311.832031 L 167.40625 304.652344 L 169.164063 299.058594 L 174.074219 288.722656 L 176.464844 286.417969 L 178.757813 285.980469 L 180.191406 286.804688 L 181.015625 286.710938 L 182.933594 286.238281 L 183.03125 285.160156 L 182.34375 284.746094 L 180.035156 285.351563 L 174.65625 284.980469 L 173.03125 284.445313 L 174.28125 282.925781 L 176.640625 281.550781 L 179.332031 281.078125 L 184.859375 281.09375 L 186.792969 280.734375 L 188.339844 280.058594 L 190.285156 278.660156 L 192.855469 277.453125 L 196.050781 276.617188 L 198.050781 275.414063 L 199.09375 274.367188 L 199.917969 273.109375 L 200.484375 271.695313 Z M 228.757813 466.75 L 228.613281 467.175781 L 227.203125 469.085938 L 224.171875 472.097656 L 222.296875 470.886719 L 220.207031 471.1875 L 221.476563 469.683594 L 227.316406 466.367188 Z M 140.464844 357.734375 L 140.554688 356.25 L 140.3125 355.175781 L 140.597656 355.164063 L 141.484375 356.3125 L 142.226563 358.1875 L 141.734375 358.875 L 141.003906 358.070313 Z M 117.476563 224.410156 L 117.089844 223.351563 L 116.53125 222.347656 L 115.722656 221.328125 L 114.777344 220.46875 L 113.699219 219.777344 L 112.523438 219.277344 L 111.261719 218.96875 L 110.574219 218.914063 L 112.601563 217.957031 L 112.90625 216.820313 L 112.554688 216.699219 L 109.90625 217.519531 L 105.058594 214.074219 L 105.636719 211.667969 L 108.914063 210.140625 L 110.03125 209.789063 L 110.59375 209.929688 L 111.976563 210.636719 L 113.289063 212.988281 L 113.785156 214.699219 L 116.457031 215.945313 L 117.929688 216.300781 L 121.195313 219.144531 L 120.902344 221.207031 L 119.445313 223.339844 Z M 98.429688 176.652344 L 99.71875 174.707031 L 101.628906 173.191406 L 103.910156 172.34375 L 104.679688 172.3125 L 104.785156 172.40625 L 105.550781 172.625 L 106.207031 172.253906 L 106.347656 172.246094 L 109.265625 172.59375 L 111.0625 172.363281 L 112.332031 171.859375 L 112.300781 173.941406 L 111.832031 177.386719 L 112.054688 181.640625 L 117.5 184.859375 L 120.773438 183.445313 L 123.167969 184.417969 L 122.46875 186.839844 L 119.148438 190.25 L 118.089844 190.683594 L 116.035156 193.449219 L 114.023438 194.042969 L 113.570313 192.609375 L 115.183594 189.4375 L 113.980469 187.324219 L 112.75 189.558594 L 110.542969 187.414063 L 107.277344 187.777344 L 104.472656 183.015625 L 103.78125 181.25 L 105.464844 179.976563 L 107.179688 181.675781 L 107.667969 181.742188 L 107.789063 181.460938 L 102.875 176.632813 L 101.867188 177.609375 L 102.007813 179.089844 L 101.671875 179.800781 L 98.648438 178.089844 Z M 120.878906 168.625 L 122.308594 168.871094 L 124.484375 170.03125 L 126.503906 171.5625 L 128.144531 172.300781 L 129.894531 172.640625 L 131.757813 172.566406 L 133.054688 172.234375 L 134.457031 171.570313 L 135.679688 170.65625 L 136.644531 169.582031 L 137.675781 167.742188 L 138.878906 163.953125 L 138.949219 162.089844 L 138.472656 159.996094 L 137.746094 158.554688 L 136.761719 157.355469 L 136.261719 156.996094 L 135.242188 155.121094 L 133.609375 154.054688 L 130.640625 151.316406 L 129.429688 149.296875 L 129.746094 148.554688 L 130.132813 148.371094 L 132.507813 149.96875 L 133.015625 149.894531 L 133.449219 149.351563 L 133.714844 146.386719 L 133.191406 146.265625 L 131.136719 142.199219 L 131.269531 141.472656 L 135.539063 142.054688 L 138.566406 141.597656 L 137.367188 140.554688 L 136.398438 137.808594 L 137.269531 134.527344 L 137.492188 134.546875 L 139.632813 135.410156 L 141.421875 136.867188 L 142.707031 138.785156 L 144.433594 142.453125 L 145.890625 144.125 L 147.839844 145.347656 L 150.105469 145.957031 L 152.070313 145.917969 L 154 145.355469 L 155.835938 144.214844 L 157.898438 141.976563 L 159.71875 140.519531 L 161.890625 139.671875 L 164.214844 139.503906 L 166.488281 140.039063 L 168.496094 141.222656 L 170.0625 142.949219 L 171.042969 145.066406 L 171.351563 147.375 L 170.996094 149.46875 L 162.601563 156.074219 L 162.234375 157.082031 L 162.671875 158.175781 L 162.078125 159.632813 L 159.644531 160.289063 L 156.839844 159.359375 L 153.464844 157.734375 L 154.464844 159.796875 L 155.875 160.457031 L 161.363281 161.917969 L 164.042969 162.292969 L 165.242188 161.992188 L 166.015625 161.605469 L 166.75 160.257813 L 167.589844 160.183594 L 167.507813 160.828125 L 166.417969 162.609375 L 162.722656 166.96875 L 162.175781 167.183594 L 161.726563 166.894531 L 161.859375 165.949219 L 161.53125 165.507813 L 159.984375 165.785156 L 155.320313 167.769531 L 152.441406 170.8125 L 151.949219 171.945313 L 152.140625 172.144531 L 156.390625 168.453125 L 157.75 167.980469 L 160.300781 168.324219 L 161.058594 169.320313 L 157.109375 173.804688 L 156.367188 175.339844 L 156.707031 175.816406 L 157.367188 175.984375 L 158.261719 175.542969 L 161.140625 173.015625 L 167.808594 170.273438 L 170.480469 169.527344 L 170.492188 169.949219 L 171.554688 169.839844 L 173.589844 168.316406 L 174.046875 166.78125 L 178.648438 166.167969 L 179.285156 167.089844 L 180.148438 167.667969 L 184.320313 169.011719 L 187.675781 167.128906 L 190.257813 167.546875 L 191.796875 169.476563 L 193.222656 170.609375 L 194.71875 171.320313 L 196.519531 171.722656 L 198.089844 171.71875 L 199.648438 171.382813 L 201.230469 170.664063 L 203.160156 169.222656 L 203.738281 168.917969 L 204.117188 168.914063 L 204.785156 168.371094 L 205.359375 168.074219 L 207.183594 167.777344 L 207.910156 167.828125 L 210.3125 168.835938 L 212.550781 172.800781 L 213.671875 176.582031 L 213.695313 178 L 209.382813 183.425781 L 207.15625 188.339844 L 206.664063 191.242188 L 206.84375 191.972656 L 206.226563 194.742188 L 203.9375 198.859375 L 203.765625 200.121094 L 204.023438 201.304688 L 203.34375 203.160156 L 201.1875 202.789063 L 198.5625 202.945313 L 196.652344 202.820313 L 193.445313 202.203125 L 190.03125 202.550781 L 187.320313 202.34375 L 184.824219 201.703125 L 183.410156 201.652344 L 180.785156 202.230469 L 179.773438 202.722656 L 178.121094 203.929688 L 174.910156 205.296875 L 173.496094 205.550781 L 170.519531 205.5 L 167.785156 204.335938 L 165.816406 203 L 164.5625 202.433594 L 163.261719 202.109375 L 161.972656 202.023438 L 159.722656 202.402344 L 156.839844 203.761719 L 155.066406 204.351563 L 153.199219 204.5 L 150.242188 204.375 L 148.503906 204.742188 L 146.558594 205.71875 L 145.03125 207.117188 L 143.835938 209.105469 L 143.003906 212.445313 L 142.210938 214.421875 L 140.914063 216.105469 L 139.207031 217.375 L 136.742188 218.726563 L 135.464844 219.882813 L 134.398438 221.445313 L 133.460938 223.914063 L 132.097656 226.210938 L 130.925781 227.574219 L 129.1875 229.078125 L 127.203125 229.949219 L 127.382813 230.054688 L 129.039063 231.976563 L 129.984375 234.328125 L 130.003906 234.421875 L 126.449219 238.917969 L 125.671875 238.734375 L 125.460938 238.363281 L 125.808594 243.796875 L 123.902344 244.453125 L 121.402344 244.472656 L 120.71875 244.367188 L 119.292969 243.925781 L 119.359375 242.367188 L 121.945313 238.054688 L 122.191406 237.09375 L 120.824219 237.742188 L 119.636719 239.75 L 119.449219 238.929688 L 123.929688 230.9375 L 123.671875 230.734375 L 122.386719 231.796875 L 121.808594 231.777344 L 122.070313 227.40625 L 122.761719 224.691406 L 124.160156 221.96875 L 126.660156 220.210938 L 128.792969 220.179688 L 129.328125 220.484375 L 131.4375 220.320313 L 134.28125 217.339844 L 135.300781 215.007813 L 134.855469 215.347656 L 134.105469 217.117188 L 131.898438 219.546875 L 131.125 219.644531 L 127.28125 218.265625 L 127.882813 216.460938 L 128.195313 216.742188 L 128.945313 216.671875 L 131.070313 215.113281 L 129.507813 214.882813 L 128.550781 215.441406 L 127.980469 214.949219 L 127.875 213.785156 L 129.65625 210.6875 L 134.21875 205.03125 L 134.59375 204.003906 L 123.476563 215.398438 L 120.675781 217.269531 L 120.230469 216.390625 L 115.878906 214.433594 L 114.8125 213.664063 L 113.113281 211.414063 L 113.132813 210.632813 L 113.96875 210.082031 L 116.167969 209.980469 L 120.585938 209.09375 L 123.988281 209.15625 L 124.257813 209.050781 L 124.117188 208.789063 L 119.15625 207.757813 L 117.03125 209.015625 L 115.34375 209.1875 L 108.898438 208.554688 L 108.144531 207.871094 L 107.96875 206.789063 L 109.109375 205.527344 L 114.792969 204.496094 L 115.882813 205.636719 L 117.070313 206.34375 L 118.480469 204.378906 L 117.316406 203.507813 L 117.253906 202.640625 L 119.675781 202.136719 L 120.503906 202.316406 L 121.824219 201.292969 L 121.664063 200.792969 L 120.140625 199.953125 L 116.804688 200.417969 L 115.804688 199.949219 L 118.253906 195.210938 L 118.835938 194.789063 L 120.441406 194.839844 L 120.773438 195.527344 L 122.574219 196.710938 L 124.417969 196.351563 L 125.527344 195.796875 L 122.886719 196.148438 L 119.445313 193.175781 L 119.640625 191.949219 L 120.992188 190.507813 L 122.769531 190.464844 L 125.425781 191.839844 L 128.601563 191.21875 L 128.128906 190.679688 L 126.691406 190.847656 L 125.089844 190.582031 L 122.863281 188.511719 L 123.117188 185.351563 L 125.410156 184.53125 L 125.660156 184.984375 L 127.679688 186.175781 L 128.171875 186.347656 L 128.714844 185.882813 L 126.332031 183.683594 L 124.980469 183.324219 L 124.4375 181.292969 L 125.035156 181.238281 L 127.738281 179.023438 L 128.101563 177.597656 L 126.824219 178.363281 L 120.484375 180.664063 L 119.382813 179.570313 L 118.449219 174.53125 L 119.414063 170.535156 L 120.097656 170.289063 L 120.859375 170.738281 L 121.429688 171.886719 L 123.644531 173.570313 L 124.390625 172.890625 L 127 172.59375 L 126.421875 171.808594 L 123.910156 171.675781 L 123.300781 171.917969 Z M 130.199219 235.792969 L 130.304688 237.628906 L 129.640625 240.039063 L 128.25 242.113281 L 127.566406 242.640625 L 128.453125 238.691406 Z M 115.25 240.667969 L 114.398438 238.621094 L 114.164063 236.378906 L 114.300781 235.652344 L 116.605469 233.660156 L 119.195313 232.023438 L 119.632813 233.128906 L 119.449219 233.945313 L 118.015625 235.730469 Z M 106.160156 152.738281 L 104.113281 152.332031 L 102.003906 151.15625 L 100.996094 150.070313 L 101.84375 148.921875 L 103.425781 148.886719 L 101.296875 148.414063 L 100.445313 149.480469 L 100.359375 149.386719 L 99.339844 147.199219 L 99.039063 144.800781 L 99.121094 142.328125 L 100.179688 142.804688 L 100.34375 142.296875 L 99.3125 139.988281 L 99.492188 138.894531 L 99.945313 137.386719 L 102.429688 135.863281 L 102.902344 135.917969 L 103 136.214844 L 105.253906 135.441406 L 111.003906 130.808594 L 112.246094 129.429688 L 113.019531 130.191406 L 114.117188 133.539063 L 112.328125 137.878906 L 110.105469 140.078125 L 109.925781 141.289063 L 111.058594 141.910156 L 112.367188 141.523438 L 113.644531 140.4375 L 114.097656 140.800781 L 113.746094 142.269531 L 112.140625 143.671875 L 111.234375 143.917969 L 109.761719 143.558594 L 108.839844 144.542969 L 108.40625 145.765625 L 105.6875 146.980469 L 102.835938 147.460938 L 103.40625 147.65625 L 105.667969 147.414063 L 108.015625 146.824219 L 108.78125 149.976563 L 106.21875 152.621094 Z M 99.132813 141.953125 L 99.160156 141.179688 L 99.277344 141.320313 L 99.230469 141.953125 Z M 147.425781 363.976563 L 146.109375 363.875 L 144.195313 361.613281 L 142.050781 357.363281 L 142.246094 352.273438 L 144.664063 351.183594 L 146.003906 350.957031 L 149.566406 352.007813 L 151.039063 355.578125 L 155.546875 356.503906 L 154.066406 358.859375 L 150.984375 360.816406 Z M 116.21875 172.839844 L 115.832031 172.433594 L 115.832031 171.710938 L 116.085938 170.789063 L 116.59375 170.277344 L 116.765625 170.625 Z M 113.875 180.957031 L 113.53125 180.855469 L 113.277344 179.863281 L 113.640625 176.351563 L 114.757813 173.765625 L 115.464844 173.085938 L 116.03125 173.816406 L 115.367188 179.941406 L 114.945313 180.566406 Z M 116.207031 183.113281 L 115.0625 182.589844 L 114.59375 181.914063 L 114.695313 181.441406 L 115.34375 181.214844 L 116.664063 181.757813 L 116.886719 182.648438 Z M 106.597656 197.398438 L 105.582031 196.804688 L 103.613281 194.261719 L 105.34375 192.390625 L 106.722656 192.214844 L 107.992188 192.835938 L 108.445313 193.703125 L 108.09375 196.351563 L 107.546875 197.015625 Z M 110.160156 200.433594 L 108.972656 199.578125 L 108.9375 198.890625 L 110.578125 197.179688 L 111.398438 197.769531 L 111.5 198.265625 L 111.128906 199.855469 Z M 108.136719 218.074219 L 107.207031 217.691406 L 106.753906 217.160156 L 107.335938 216.378906 L 108.085938 216.507813 L 109.105469 217.519531 L 109.070313 217.820313 Z M 123.378906 222.417969 L 122.582031 222.078125 L 123.082031 221.191406 L 124.476563 221.046875 Z M 121.453125 227.109375 L 121.152344 226.972656 L 120.984375 225.621094 L 121.59375 224.800781 L 122.367188 224.816406 L 121.953125 226.621094 Z M 120.902344 230.566406 L 120.316406 229.273438 L 120.976563 227.386719 L 121.816406 227.683594 Z M 118.503906 231.671875 L 118.15625 231.449219 L 118.535156 230.824219 L 119.917969 230.164063 L 119.953125 231.257813 Z M 118.503906 231.671875 "/>
<path style="fill:none;stroke-width:0.75;stroke-linecap:round;stroke-linejoin:round;stroke:rgb(0%,0%,0%);stroke-opacity:1;stroke-miterlimit:10;" d="M 147.425781 363.976563 L 146.109375 363.875 L 144.195313 361.613281 L 142.050781 357.363281 L 142.246094 352.273438 L 144.664063 351.183594 L 146.003906 350.957031 L 149.566406 352.007813 L 151.039063 355.578125 L 155.546875 356.503906 L 154.066406 358.859375 L 150.984375 360.816406 Z M 141.734375 358.875 L 141.003906 358.070313 L 139.230469 356.960938 L 138.828125 356.035156 L 139.253906 355.210938 L 140.597656 355.164063 L 141.484375 356.3125 L 142.226563 358.1875 Z M 137.933594 323.433594 L 137.675781 322.921875 L 139.816406 316.644531 L 142.300781 315.023438 L 144.765625 310.230469 L 145.863281 309.40625 L 149.046875 308.269531 L 150.203125 313.453125 L 147.847656 318.148438 L 145.3125 320.636719 L 141.859375 323.019531 L 139.824219 322.464844 Z M 286.679688 439.636719 L 283.058594 438.976563 L 282.164063 437.605469 L 282.484375 436.070313 L 286.839844 437.054688 L 287.960938 438.832031 Z M 136.210938 448.453125 L 135.929688 448.140625 L 136.109375 446.949219 L 136.398438 446.875 L 136.6875 448.207031 Z M 236.835938 466.113281 L 235.136719 465.644531 L 236.523438 463.683594 L 237.195313 464.164063 L 237.5 465.839844 Z M 228.117188 474.644531 L 222.296875 470.886719 L 220.207031 471.1875 L 221.476563 469.683594 L 227.316406 466.367188 L 232.550781 467.761719 L 234.171875 469.894531 L 231.242188 473.621094 L 229.960938 474.269531 Z M 88.429688 500.046875 L 88.566406 499.308594 L 88.941406 499.117188 L 89.34375 499.789063 Z M 233.101563 38.984375 L 230.96875 38.972656 L 230.324219 38.394531 L 230.816406 33.792969 L 232.058594 31.609375 L 233.582031 31.753906 L 234.398438 32.242188 L 234.613281 32.71875 Z M 227.496094 47.179688 L 226.742188 47.023438 L 226.078125 45.398438 L 225.789063 41.242188 L 227.246094 36.808594 L 228.363281 36.574219 L 229.761719 37.023438 L 229.984375 39.984375 L 229.175781 46.582031 Z M 226.023438 58.453125 L 227.246094 61.769531 L 226.800781 62.460938 L 226.285156 62.238281 L 225.40625 63.738281 L 225.265625 67.207031 L 224.308594 74.617188 L 223.472656 74.351563 L 221.910156 72.433594 L 222.910156 68.203125 L 223.429688 67.644531 L 224.308594 63.570313 L 223.632813 57.773438 L 221.078125 57.210938 L 222.089844 58.292969 L 222.21875 59.898438 L 220.292969 61.703125 L 218.738281 60.40625 L 218.746094 59.554688 L 215.621094 58.289063 L 215.003906 56.183594 L 215.039063 55.8125 L 215.808594 55.171875 L 220.695313 54.34375 L 222.421875 53.527344 L 222.960938 52.8125 L 220.238281 48.339844 L 216.699219 47.671875 L 217.085938 46.324219 L 220.816406 42.097656 L 223.226563 40.707031 L 223.542969 41.710938 L 223.417969 46.992188 L 223.628906 47.851563 L 228.960938 48.949219 L 227.699219 56.234375 L 226.355469 57.007813 L 225.6875 56.476563 Z M 189.007813 101.453125 L 189.121094 100.265625 L 187.730469 99.058594 L 186.953125 98.894531 L 186.835938 99.515625 L 186.335938 100.011719 L 184.679688 96.953125 L 188.613281 98.375 L 189.644531 99.757813 L 189.558594 100.558594 Z M 193.226563 103.421875 L 193.136719 102.113281 L 195.332031 98.847656 L 196.15625 98.316406 L 199.542969 97.917969 L 199.804688 99.347656 L 197.464844 100.832031 L 194.695313 101.191406 Z M 189.996094 116.5625 L 186.777344 113.90625 L 184.832031 114.03125 L 181.886719 115.097656 L 178.421875 112.621094 L 177.964844 110.527344 L 178.445313 106.398438 L 179.1875 105.574219 L 181.753906 104.792969 L 184.519531 106.003906 L 186.230469 108.273438 L 187.324219 111.371094 L 189.425781 112.382813 L 190.734375 113.441406 L 191.546875 114.902344 Z M 180.816406 120.886719 L 179.261719 120.746094 L 176.429688 116.660156 L 176.75 115.25 L 177.207031 114.695313 L 178.613281 114.28125 L 181.269531 116.636719 L 182.96875 119.6875 L 182.941406 120.441406 Z M 187.335938 122.957031 L 186.4375 122.070313 L 185.203125 119.125 L 185.941406 118.488281 L 188.300781 118.292969 L 188.792969 119.078125 L 187.910156 122.796875 Z M 105.796875 153.449219 L 105.773438 153.792969 L 103.472656 154.890625 L 101.40625 154.195313 L 100.703125 152.269531 L 100.652344 150.535156 L 101.84375 148.921875 L 103.425781 148.886719 L 101.296875 148.414063 L 99.359375 150.839844 L 100.101563 152.9375 L 101.019531 153.988281 L 101.277344 156.078125 L 99.433594 158.316406 L 93.527344 162.226563 L 90.550781 158.175781 L 90.507813 157.148438 L 91.820313 157.980469 L 97.480469 154.929688 L 96.453125 153.484375 L 95.234375 152.652344 L 94.117188 152.148438 L 92.941406 152.324219 L 92.058594 151.863281 L 91.273438 150.875 L 92.699219 149.40625 L 91.417969 144.347656 L 93.265625 140.78125 L 93.941406 140.0625 L 96.675781 141.359375 L 95.960938 142.378906 L 97.386719 146.128906 L 97.359375 142.890625 L 98.964844 142.257813 L 100.179688 142.804688 L 100.34375 142.296875 L 99.09375 139.5 L 98.9375 138.609375 L 99.460938 137.6875 L 102.429688 135.863281 L 102.902344 135.917969 L 103 136.214844 L 105.253906 135.441406 L 111.003906 130.808594 L 112.246094 129.429688 L 113.019531 130.191406 L 114.117188 133.539063 L 112.328125 137.878906 L 110.105469 140.078125 L 109.925781 141.289063 L 111.058594 141.910156 L 112.367188 141.523438 L 113.644531 140.4375 L 114.097656 140.800781 L 113.746094 142.269531 L 112.140625 143.671875 L 111.234375 143.917969 L 109.761719 143.558594 L 108.839844 144.542969 L 108.40625 145.765625 L 105.6875 146.980469 L 102.835938 147.460938 L 103.40625 147.65625 L 105.667969 147.414063 L 108.015625 146.824219 L 108.78125 149.976563 L 106.21875 152.621094 Z M 98.214844 141.941406 L 97.453125 141.691406 L 97.21875 139.679688 L 98.019531 139.84375 L 99.277344 141.320313 L 99.230469 141.953125 Z M 91.824219 155.515625 L 91.882813 154.726563 L 92.882813 153.957031 L 93.789063 153.890625 L 93.378906 155.476563 Z M 57.035156 155.945313 L 56.230469 155.527344 L 56.160156 154.664063 L 57.585938 155.238281 Z M 88.238281 162.863281 L 87.917969 162.585938 L 88.445313 161.890625 L 89.367188 161.550781 L 89.65625 162.238281 Z M 86.902344 171.355469 L 84.875 171.125 L 84.914063 169.441406 L 82.996094 168.253906 L 81.464844 168.371094 L 80.089844 167.152344 L 80.046875 166.824219 L 81.617188 164.507813 L 86.457031 164.699219 L 87.222656 163.867188 L 88.554688 163.523438 L 91.023438 165.660156 L 91.214844 166.0625 L 88.9375 171.015625 L 88.773438 171.246094 Z M 118.089844 190.683594 L 116.035156 193.449219 L 114.023438 194.042969 L 113.570313 192.609375 L 115.183594 189.4375 L 113.980469 187.324219 L 112.75 189.558594 L 110.542969 187.414063 L 107.277344 187.777344 L 104.472656 183.015625 L 103.78125 181.25 L 105.464844 179.976563 L 107.179688 181.675781 L 107.667969 181.742188 L 107.789063 181.460938 L 102.875 176.632813 L 101.867188 177.609375 L 102.007813 179.089844 L 101.671875 179.800781 L 98.648438 178.089844 L 98.414063 176.53125 L 97.28125 175.296875 L 97.152344 174.433594 L 101.03125 167.96875 L 101.53125 168.039063 L 102.335938 169.03125 L 102.71875 170.644531 L 104.785156 172.40625 L 105.550781 172.625 L 106.867188 171.878906 L 106.617188 168.460938 L 106.121094 166.925781 L 108.003906 165.003906 L 108.964844 165.003906 L 111.609375 168.273438 L 112.355469 170.324219 L 112.300781 173.941406 L 111.832031 177.386719 L 112.054688 181.640625 L 117.5 184.859375 L 120.773438 183.445313 L 123.167969 184.417969 L 122.46875 186.839844 L 119.148438 190.25 Z M 116.21875 172.839844 L 115.832031 172.433594 L 115.832031 171.710938 L 116.085938 170.789063 L 116.59375 170.277344 L 116.765625 170.625 Z M 113.875 180.957031 L 113.53125 180.855469 L 113.277344 179.863281 L 113.640625 176.351563 L 114.757813 173.765625 L 115.464844 173.085938 L 116.03125 173.816406 L 115.367188 179.941406 L 114.945313 180.566406 Z M 85.394531 175.835938 L 84.546875 175.601563 L 83.046875 174.507813 L 82.722656 173.699219 L 82.824219 172.589844 L 83.972656 171.789063 L 86.566406 172.507813 L 87.433594 173.25 L 87.285156 175.226563 Z M 86.054688 188.15625 L 85.625 188.976563 L 84.328125 188.382813 L 82.6875 188.554688 L 82.128906 188.101563 L 81.921875 187.375 L 81.515625 184.671875 L 82.046875 176.234375 L 83.4375 175.515625 L 85.28125 176.539063 L 86.578125 178.347656 L 85.882813 178.945313 L 85.144531 178.476563 L 85.03125 179.058594 L 85.140625 186.4375 Z M 116.207031 183.113281 L 115.0625 182.589844 L 114.59375 181.914063 L 114.695313 181.441406 L 115.34375 181.214844 L 116.664063 181.757813 L 116.886719 182.648438 Z M 100.703125 192.265625 L 100.25 191.921875 L 101.515625 191.273438 L 102.835938 191.832031 Z M 79.542969 195.171875 L 77.601563 194.722656 L 77.417969 194.15625 L 80.441406 190.269531 L 81.117188 190.9375 L 81.808594 193.710938 L 80.203125 195.140625 Z M 106.597656 197.398438 L 105.582031 196.804688 L 103.613281 194.261719 L 105.34375 192.390625 L 106.722656 192.214844 L 107.992188 192.835938 L 108.445313 193.703125 L 108.09375 196.351563 L 107.546875 197.015625 Z M 110.160156 200.433594 L 108.972656 199.578125 L 108.9375 198.890625 L 110.578125 197.179688 L 111.398438 197.769531 L 111.5 198.265625 L 111.128906 199.855469 Z M 96.976563 213.15625 L 96.5625 212.070313 L 98.742188 209.859375 L 101.351563 207.964844 L 102.617188 207.75 L 102.652344 208.195313 L 101.386719 210.445313 L 99.425781 212.117188 Z M 110.59375 209.929688 L 111.976563 210.636719 L 113.289063 212.988281 L 113.785156 214.699219 L 116.457031 215.945313 L 117.929688 216.300781 L 121.195313 219.144531 L 120.902344 221.207031 L 119.445313 223.339844 L 116.335938 225.03125 L 115.453125 224.539063 L 116.136719 223.339844 L 115.425781 223.117188 L 112.109375 224.96875 L 106.027344 226.585938 L 104.691406 226.273438 L 103.734375 224.277344 L 103.851563 223.371094 L 104.191406 223.09375 L 105.628906 223.050781 L 106.039063 223.617188 L 106.972656 224.074219 L 112.214844 222.164063 L 112.035156 221.589844 L 109.863281 222.445313 L 108.199219 222.488281 L 107.824219 221.539063 L 109.386719 219.472656 L 112.601563 217.957031 L 112.90625 216.820313 L 112.554688 216.699219 L 109.90625 217.519531 L 105.058594 214.074219 L 105.636719 211.667969 L 108.914063 210.140625 L 110.03125 209.789063 Z M 91.515625 217.839844 L 89.652344 217.246094 L 89.414063 215.113281 L 90.1875 214.519531 L 95.1875 213.382813 L 95.671875 214.59375 L 93.804688 214.847656 L 92.019531 216.296875 Z M 108.136719 218.074219 L 107.207031 217.691406 L 106.753906 217.160156 L 107.335938 216.378906 L 108.085938 216.507813 L 109.105469 217.519531 L 109.070313 217.820313 Z M 123.378906 222.417969 L 122.582031 222.078125 L 123.082031 221.191406 L 124.476563 221.046875 Z M 102.664063 224.511719 L 102.054688 224.097656 L 102.589844 223.230469 L 103.304688 222.808594 L 103.460938 223.023438 Z M 121.453125 227.109375 L 121.152344 226.972656 L 120.984375 225.621094 L 121.59375 224.800781 L 122.367188 224.816406 L 121.953125 226.621094 Z M 120.902344 230.566406 L 120.316406 229.273438 L 120.976563 227.386719 L 121.816406 227.683594 Z M 118.503906 231.671875 L 118.15625 231.449219 L 118.535156 230.824219 L 119.917969 230.164063 L 119.953125 231.257813 Z M 111.886719 247.292969 L 110.550781 247.070313 L 109.476563 246.144531 L 109.292969 243.285156 L 109.585938 242.089844 L 112.5625 237.15625 L 116.605469 233.660156 L 119.195313 232.023438 L 119.632813 233.128906 L 119.449219 233.945313 L 118.015625 235.730469 L 113.761719 243.328125 Z M 106.976563 236.632813 L 105.476563 236.191406 L 106.28125 234.464844 L 107.839844 232.910156 L 108.882813 232.734375 L 107.535156 236.1875 Z M 103.964844 256.144531 L 102.714844 255.347656 L 104.988281 247.472656 L 102.980469 247.105469 L 101.464844 249.738281 L 99.988281 251.246094 L 99.089844 251.691406 L 98.539063 251.066406 L 99.023438 248.875 L 100.660156 243.785156 L 102.445313 243.214844 L 103.882813 243.558594 L 106.871094 241.457031 L 108.433594 240.808594 L 108.667969 241.335938 L 108.480469 243.175781 L 108.777344 246.292969 L 109.046875 247.320313 L 109.929688 248.226563 L 110.335938 251.851563 L 108.992188 253.109375 Z M 134.8125 251.347656 L 132.589844 248.835938 L 130.84375 244.566406 L 130.707031 243.464844 L 131.460938 242.613281 L 133.71875 244.574219 L 134.707031 246.3125 L 135.339844 249.003906 L 135.222656 250.96875 Z M 130.613281 263.773438 L 129.152344 263.667969 L 126.582031 261.613281 L 125.375 256.128906 L 125.988281 253.21875 L 128.179688 251.246094 L 129.539063 251.441406 L 131.390625 253.015625 L 132.984375 258.382813 L 133.019531 262.765625 L 132.308594 263.453125 Z M 190.570313 429.988281 L 189.222656 431.449219 L 185.628906 432.957031 L 183.714844 433.246094 L 182.441406 433.0625 L 178.394531 435.230469 L 177.398438 436.808594 L 177.039063 438.671875 L 176.445313 439.273438 L 174.058594 439.917969 L 170.558594 439.851563 L 166.820313 439 L 166.347656 438.652344 L 161.371094 433.375 L 159.03125 429.199219 L 155.65625 429.589844 L 149.269531 432.308594 L 149.113281 432.746094 L 147.203125 431.632813 L 146.917969 429.308594 L 148.539063 428.378906 L 150.066406 428.890625 L 151.640625 428.421875 L 152.765625 427.832031 L 153.085938 427.097656 L 152.808594 426.597656 L 147.785156 426.460938 L 143.210938 423.710938 L 139.503906 423.714844 L 136.765625 424.277344 L 136.292969 426.515625 L 135.777344 427.203125 L 133.742188 427.917969 L 132.394531 427.265625 L 131.648438 427.453125 L 129.4375 429.378906 L 126.53125 428.132813 L 127.425781 426.082031 L 128.796875 425.832031 L 131.792969 424.328125 L 131.226563 422.867188 L 130.640625 424.257813 L 127.769531 424.613281 L 122.949219 424.152344 L 121.496094 423.164063 L 124.125 421.78125 L 125.167969 421.753906 L 125.464844 421.238281 L 124.929688 417.953125 L 123.328125 417.210938 L 121.445313 417.105469 L 122.0625 415.152344 L 125.933594 413.378906 L 126.539063 411.90625 L 133.074219 411.34375 L 134.871094 409.289063 L 135.753906 407.632813 L 137.585938 406.550781 L 141.359375 406.660156 L 142.21875 406.390625 L 149.359375 401.828125 L 152.136719 398.207031 L 153.054688 396.195313 L 154.199219 391.746094 L 153.734375 388.820313 L 152.566406 386.542969 L 153.179688 384.597656 L 154.652344 381.796875 L 152.269531 378.203125 L 152.683594 374.835938 L 153.175781 374.082031 L 152.804688 373.207031 L 150.203125 373.105469 L 145.449219 374.257813 L 143.757813 375.484375 L 142.039063 378.097656 L 136.757813 378.433594 L 136.246094 378.0625 L 137.339844 376.066406 L 140.148438 373.019531 L 141.023438 372.414063 L 142.589844 371.953125 L 147.132813 367.984375 L 147.953125 364.523438 L 151.550781 360.582031 L 153.09375 359.609375 L 154.941406 359.808594 L 160.492188 357.457031 L 163.644531 357.28125 L 167.339844 357.714844 L 172.597656 355.179688 L 173.933594 355.046875 L 174.484375 355.082031 L 179.910156 359.441406 L 180.433594 358.429688 L 177.679688 353.460938 L 178.242188 352.835938 L 180.867188 352.449219 L 181.503906 352.695313 L 181.914063 353.875 L 182.898438 354.332031 L 184.078125 356.789063 L 185.613281 357.902344 L 188.359375 357.621094 L 190.335938 355.148438 L 189.90625 355.050781 L 188.667969 355.527344 L 188.3125 355.957031 L 186.378906 356.386719 L 183.8125 354.640625 L 179.976563 346.332031 L 183.371094 340.257813 L 185.429688 339.015625 L 185.140625 338.578125 L 182.683594 338.460938 L 181.554688 337.164063 L 181.355469 336.117188 L 181.601563 331.078125 L 181.949219 330.421875 L 184.695313 329.191406 L 187.28125 323.421875 L 187.71875 320.933594 L 187.855469 317.484375 L 184.742188 320.527344 L 179.199219 323.441406 L 177.335938 322.691406 L 172.851563 314.925781 L 172.289063 311.832031 L 167.40625 304.652344 L 169.164063 299.058594 L 174.074219 288.722656 L 176.464844 286.417969 L 178.757813 285.980469 L 180.191406 286.804688 L 181.015625 286.710938 L 182.933594 286.238281 L 183.03125 285.160156 L 182.34375 284.746094 L 180.035156 285.351563 L 174.65625 284.980469 L 172.566406 284.292969 L 169.453125 284.03125 L 168.226563 288.992188 L 166.234375 288.695313 L 163.3125 290.011719 L 161.832031 291.855469 L 159.410156 293.515625 L 156.15625 293.3125 L 155.160156 292.984375 L 149.984375 289.230469 L 149.214844 288.042969 L 149.230469 287.167969 L 148.945313 287.023438 L 148.15625 288.078125 L 147.988281 288.910156 L 148.375 290.554688 L 149.574219 292.960938 L 149.839844 295.726563 L 149.308594 296.871094 L 148.746094 297.058594 L 145.816406 295.78125 L 144.601563 294.238281 L 144.507813 293.621094 L 143.632813 292.355469 L 141.613281 291.4375 L 140.164063 290.433594 L 138.398438 288.636719 L 137.464844 288.296875 L 135.511719 289.683594 L 134.605469 291.238281 L 135.976563 295.472656 L 136.734375 296.308594 L 136.957031 298.523438 L 136.742188 298.695313 L 134.683594 297.484375 L 134.359375 296.304688 L 134.707031 295.457031 L 134.59375 294.480469 L 133.472656 292.679688 L 130.894531 289.722656 L 129.605469 286.988281 L 129.300781 285.09375 L 129.71875 282.265625 L 132.777344 280.410156 L 134.003906 276.632813 L 137.757813 273.035156 L 138.601563 268.871094 L 140.917969 265.085938 L 143.644531 263.800781 L 144.390625 261.886719 L 144.195313 260.621094 L 142.601563 256.71875 L 139.777344 254.832031 L 137.378906 252.511719 L 138.6875 242.234375 L 140.710938 241.59375 L 142.886719 242.511719 L 146.15625 243.175781 L 148.300781 243.253906 L 141.261719 240.453125 L 140.441406 240.5625 L 139.386719 240.085938 L 139.183594 238.121094 L 139.414063 236.460938 L 140.238281 234.648438 L 139.292969 234.9375 L 138.320313 240.257813 L 136.15625 245.152344 L 135.023438 244.945313 L 131.566406 242.222656 L 130.757813 242.5 L 130.269531 243.347656 L 130.09375 244.535156 L 130.664063 246.308594 L 130.519531 246.613281 L 128.257813 245.464844 L 127.46875 243.074219 L 128.453125 238.691406 L 131.230469 234.078125 L 136.953125 229.316406 L 138.316406 227.601563 L 135.558594 229.292969 L 130.363281 233.964844 L 126.449219 238.917969 L 125.671875 238.734375 L 125.460938 238.363281 L 126.1875 249.699219 L 124.449219 251.558594 L 123.367188 254.191406 L 121.183594 263.964844 L 122.0625 266.289063 L 120.679688 268.164063 L 119.945313 268.597656 L 116.058594 268.992188 L 115.222656 268.382813 L 115.277344 264.699219 L 117.226563 262.640625 L 117.992188 256.269531 L 120.664063 249.058594 L 119.164063 246.890625 L 119.359375 242.367188 L 121.945313 238.054688 L 122.191406 237.09375 L 120.824219 237.742188 L 119.636719 239.75 L 119.449219 238.929688 L 123.929688 230.9375 L 123.671875 230.734375 L 122.386719 231.796875 L 121.808594 231.777344 L 122.070313 227.40625 L 122.761719 224.691406 L 124.160156 221.96875 L 126.660156 220.210938 L 128.792969 220.179688 L 129.328125 220.484375 L 131.4375 220.320313 L 134.28125 217.339844 L 135.300781 215.007813 L 134.855469 215.347656 L 134.105469 217.117188 L 131.898438 219.546875 L 131.125 219.644531 L 127.28125 218.265625 L 127.882813 216.460938 L 128.195313 216.742188 L 128.945313 216.671875 L 131.070313 215.113281 L 129.507813 214.882813 L 128.550781 215.441406 L 127.980469 214.949219 L 127.875 213.785156 L 129.65625 210.6875 L 134.21875 205.03125 L 134.59375 204.003906 L 123.476563 215.398438 L 120.675781 217.269531 L 120.230469 216.390625 L 115.878906 214.433594 L 114.8125 213.664063 L 113.113281 211.414063 L 113.132813 210.632813 L 113.96875 210.082031 L 116.167969 209.980469 L 120.585938 209.09375 L 123.988281 209.15625 L 124.257813 209.050781 L 124.117188 208.789063 L 119.15625 207.757813 L 117.03125 209.015625 L 115.34375 209.1875 L 108.898438 208.554688 L 108.144531 207.871094 L 107.96875 206.789063 L 109.109375 205.527344 L 114.792969 204.496094 L 115.882813 205.636719 L 117.070313 206.34375 L 118.480469 204.378906 L 117.316406 203.507813 L 117.253906 202.640625 L 119.675781 202.136719 L 120.503906 202.316406 L 121.824219 201.292969 L 121.664063 200.792969 L 120.140625 199.953125 L 116.804688 200.417969 L 115.804688 199.949219 L 118.253906 195.210938 L 118.835938 194.789063 L 120.441406 194.839844 L 120.773438 195.527344 L 122.574219 196.710938 L 124.417969 196.351563 L 125.527344 195.796875 L 122.886719 196.148438 L 119.445313 193.175781 L 119.640625 191.949219 L 120.992188 190.507813 L 122.769531 190.464844 L 125.425781 191.839844 L 128.601563 191.21875 L 128.128906 190.679688 L 126.691406 190.847656 L 125.089844 190.582031 L 122.863281 188.511719 L 123.117188 185.351563 L 125.410156 184.53125 L 125.660156 184.984375 L 127.679688 186.175781 L 128.171875 186.347656 L 128.714844 185.882813 L 126.332031 183.683594 L 124.980469 183.324219 L 124.4375 181.292969 L 125.035156 181.238281 L 127.738281 179.023438 L 128.101563 177.597656 L 126.824219 178.363281 L 120.484375 180.664063 L 119.382813 179.570313 L 118.449219 174.53125 L 119.414063 170.535156 L 120.097656 170.289063 L 120.859375 170.738281 L 121.429688 171.886719 L 123.644531 173.570313 L 124.390625 172.890625 L 127 172.59375 L 126.421875 171.808594 L 123.910156 171.675781 L 123.300781 171.917969 L 120.253906 167.773438 L 120.550781 159.835938 L 121.035156 158.421875 L 122.082031 157.9375 L 122.960938 157.902344 L 123.679688 158.9375 L 124.035156 161.566406 L 125.066406 162.535156 L 125.355469 162.453125 L 126.003906 159.773438 L 125.019531 158.757813 L 124.640625 157.636719 L 124.695313 156.6875 L 125.515625 155.699219 L 128.898438 158.675781 L 129.609375 156.898438 L 131.765625 156.140625 L 134.503906 157.136719 L 136.507813 158.589844 L 137.039063 159.417969 L 137.175781 158.679688 L 135.242188 155.121094 L 133.609375 154.054688 L 130.640625 151.316406 L 129.429688 149.296875 L 129.746094 148.554688 L 130.132813 148.371094 L 132.507813 149.96875 L 133.015625 149.894531 L 133.449219 149.351563 L 133.714844 146.386719 L 133.191406 146.265625 L 131.136719 142.199219 L 131.269531 141.472656 L 135.539063 142.054688 L 138.566406 141.597656 L 137.367188 140.554688 L 136.398438 137.808594 L 138.195313 131.046875 L 140.925781 126.128906 L 145.976563 127.269531 L 147.488281 129.277344 L 147.992188 130.773438 L 145.957031 133.847656 L 146.042969 134.238281 L 149.632813 130.886719 L 149.902344 129.097656 L 150.597656 128.644531 L 152.578125 129.367188 L 153.359375 129.816406 L 153.609375 130.328125 L 157.023438 130.710938 L 161.488281 129.921875 L 168.160156 129.621094 L 169.804688 128.105469 L 171.035156 127.402344 L 172.933594 127.351563 L 173.433594 127.917969 L 177.664063 128.609375 L 178 127.714844 L 177.503906 127.214844 L 177.972656 125.796875 L 185.5625 126.683594 L 184.539063 134.8125 L 182.976563 138.457031 L 180.960938 141.226563 L 177.402344 142.480469 L 176.097656 143.761719 L 173.855469 147.214844 L 162.601563 156.074219 L 162.234375 157.082031 L 162.671875 158.175781 L 162.078125 159.632813 L 159.644531 160.289063 L 156.839844 159.359375 L 153.464844 157.734375 L 154.464844 159.796875 L 155.875 160.457031 L 161.363281 161.917969 L 164.042969 162.292969 L 165.242188 161.992188 L 166.015625 161.605469 L 166.75 160.257813 L 167.589844 160.183594 L 167.507813 160.828125 L 166.417969 162.609375 L 162.722656 166.96875 L 162.175781 167.183594 L 161.726563 166.894531 L 161.859375 165.949219 L 161.53125 165.507813 L 159.984375 165.785156 L 155.320313 167.769531 L 152.441406 170.8125 L 151.949219 171.945313 L 152.140625 172.144531 L 156.390625 168.453125 L 157.75 167.980469 L 160.300781 168.324219 L 161.058594 169.320313 L 157.109375 173.804688 L 156.367188 175.339844 L 156.707031 175.816406 L 157.367188 175.984375 L 158.261719 175.542969 L 161.140625 173.015625 L 167.808594 170.273438 L 170.480469 169.527344 L 170.492188 169.949219 L 171.554688 169.839844 L 173.589844 168.316406 L 174.046875 166.78125 L 178.648438 166.167969 L 179.285156 167.089844 L 180.148438 167.667969 L 184.320313 169.011719 L 187.675781 167.128906 L 199.164063 168.988281 L 204.117188 168.914063 L 205.648438 167.671875 L 207.910156 167.828125 L 210.3125 168.835938 L 212.550781 172.800781 L 213.671875 176.582031 L 213.695313 178 L 209.382813 183.425781 L 207.15625 188.339844 L 206.664063 191.242188 L 206.84375 191.972656 L 206.226563 194.742188 L 203.9375 198.859375 L 203.765625 200.121094 L 204.023438 201.304688 L 203.230469 203.472656 L 200.949219 206.4375 L 199.179688 207.605469 L 197.078125 210.023438 L 197.433594 210.839844 L 197.785156 210.703125 L 197.761719 211.238281 L 196.796875 214.386719 L 195.867188 215.914063 L 191.214844 219.742188 L 185.519531 221.085938 L 182.847656 221.226563 L 177.804688 225.21875 L 178.117188 225.714844 L 179.84375 225.195313 L 184.609375 222.886719 L 186.457031 221.386719 L 187.289063 221.316406 L 189.085938 221.875 L 189.332031 222.921875 L 188.898438 224.691406 L 189.238281 225.953125 L 190.898438 226.824219 L 192.988281 227.191406 L 194.445313 228.726563 L 194.429688 229.304688 L 192.117188 231.570313 L 189.460938 232.730469 L 188.34375 232.882813 L 187.070313 232.078125 L 185.40625 232.042969 L 181.046875 235.800781 L 180.578125 237.003906 L 174.761719 240.109375 L 170.214844 238.117188 L 166.480469 238.003906 L 166.738281 239.222656 L 168.246094 240.195313 L 178.0625 241.875 L 182.921875 243.167969 L 186.398438 241.730469 L 187.519531 239.417969 L 188.617188 238.355469 L 189.539063 238.171875 L 193.183594 238.5 L 199.339844 242.761719 L 206.488281 246.65625 L 208.910156 251.429688 L 212.824219 256.707031 L 213.265625 256.828125 L 213.433594 256.585938 L 214.601563 257.097656 L 217.371094 258.992188 L 218.679688 263.09375 L 218.894531 265.933594 L 218.261719 267.402344 L 220.40625 277.574219 L 221.269531 280.457031 L 222.984375 284.039063 L 223.773438 285.027344 L 225.945313 294.183594 L 229.304688 299.0625 L 244.476563 306.140625 L 245.742188 307.636719 L 247.265625 310.527344 L 249.289063 315.722656 L 252.390625 319.148438 L 256.121094 320.875 L 257.207031 321.722656 L 254.738281 323.09375 L 253.890625 324.554688 L 253.765625 325.996094 L 254.984375 329.992188 L 256.160156 332.453125 L 263.316406 342.46875 L 263.640625 343.980469 L 262.804688 345.191406 L 263.28125 343.65625 L 262.507813 342.839844 L 260.445313 342 L 258.378906 342.789063 L 257.507813 342.753906 L 256.035156 341.773438 L 253.664063 338.65625 L 252.601563 338.082031 L 245.550781 339.511719 L 244.589844 338.644531 L 243.40625 338.558594 L 241.210938 339.871094 L 241.886719 340.445313 L 246.324219 340.394531 L 249.617188 339.34375 L 251.976563 339.082031 L 254.382813 342.558594 L 260.535156 347.621094 L 263.042969 349.058594 L 263.664063 349.039063 L 266.046875 352.214844 L 268.980469 359.304688 L 269.535156 362.402344 L 269.210938 365.21875 L 264.953125 369.09375 L 261.394531 373.164063 L 260.601563 374.816406 L 262.84375 374.3125 L 264.9375 375.519531 L 266.9375 378.226563 L 270.21875 378.804688 L 270.625 378.746094 L 271.910156 376.796875 L 272.234375 374.960938 L 273.40625 371.914063 L 274.707031 370.632813 L 277.851563 370.085938 L 283.34375 370.234375 L 284.253906 370.867188 L 286.703125 370.742188 L 293.949219 371.515625 L 296.914063 372.84375 L 304.070313 378.085938 L 305.367188 380.105469 L 306.730469 384.164063 L 307.179688 391.25 L 306.777344 393.191406 L 306.890625 393.976563 L 305.789063 396.917969 L 303.519531 407.832031 L 297.144531 414.53125 L 295.578125 412.011719 L 292.742188 410.515625 L 292.480469 410.636719 L 293.898438 413.703125 L 295.890625 416.628906 L 296.3125 416.765625 L 296.164063 417.742188 L 294.574219 419.804688 L 292.191406 421.289063 L 290.003906 421.65625 L 289.660156 421.574219 L 288.214844 419.332031 L 284.976563 421.730469 L 280.71875 424.230469 L 282.339844 425.378906 L 285.105469 424.398438 L 286.097656 423.375 L 286.894531 423.164063 L 287.328125 423.710938 L 287.632813 428.84375 L 285.6875 430.875 L 283.441406 432.558594 L 282.84375 432.699219 L 279.644531 432.160156 L 274.75 433.78125 L 272.609375 436.117188 L 274.253906 436.015625 L 275.152344 434.667969 L 276.683594 434.363281 L 278.285156 434.328125 L 281.054688 434.949219 L 281.828125 435.589844 L 281.691406 436.328125 L 279.554688 436.347656 L 277.390625 437.65625 L 277.96875 438.546875 L 281.382813 438.964844 L 286.863281 440.339844 L 289.394531 439.9375 L 291.074219 438.957031 L 299.742188 437.757813 L 300.988281 440.148438 L 300.773438 446.324219 L 300.335938 447.820313 L 299.394531 449.050781 L 296.972656 450.242188 L 295.839844 450.375 L 292.621094 451.640625 L 291.179688 452.742188 L 289.847656 454.226563 L 289.460938 455.09375 L 289.214844 456.324219 L 289.464844 457.886719 L 286.253906 458.289063 L 284.1875 457.9375 L 281.042969 460.90625 L 278.484375 461.933594 L 274.789063 462.777344 L 272.597656 463.816406 L 270.539063 466.589844 L 269.761719 466.949219 L 259.269531 463.777344 L 256.070313 463.507813 L 244.628906 465.699219 L 242.703125 466.390625 L 242.113281 466.964844 L 241.902344 467.984375 L 241.359375 468.164063 L 238.210938 466.1875 L 238.632813 465.4375 L 239.46875 464.933594 L 237.714844 463.296875 L 231.496094 463.171875 L 231.378906 463.496094 L 232.574219 464.835938 L 232.214844 465.75 L 231.738281 466.042969 L 226.691406 465.496094 L 219.566406 468.449219 L 217.054688 467.824219 L 210.222656 468.96875 L 208.164063 468.875 L 207.273438 468.058594 L 206.238281 469.769531 L 209.429688 471.089844 L 209.714844 470.9375 L 210.1875 472.128906 L 209.566406 473.890625 L 206.84375 474.453125 L 204.453125 473.097656 L 203.015625 472.699219 L 197.625 472.007813 L 196.175781 472.65625 L 195.679688 473.863281 L 195.832031 474.871094 L 196.757813 475.523438 L 196.488281 476.304688 L 195.917969 475.996094 L 194.851563 473.972656 L 190.289063 470.589844 L 185.898438 468.519531 L 183.121094 467.984375 L 181.648438 469.066406 L 176.207031 469.78125 L 174.339844 470.335938 L 168.992188 473.234375 L 168.214844 474.070313 L 167.203125 476.179688 L 162.746094 489.226563 L 160.929688 490.242188 L 158.269531 489.722656 L 157.554688 489.058594 L 156.527344 486.851563 L 154.683594 485.4375 L 153.613281 485.542969 L 152.417969 486.300781 L 151.738281 486.164063 L 148.46875 482.535156 L 142.796875 482.960938 L 141.527344 483.375 L 140.734375 484.175781 L 139.910156 484.507813 L 134.507813 484.320313 L 132.167969 484.859375 L 129.414063 488.195313 L 126.714844 489.746094 L 124.039063 490.597656 L 123.132813 494.289063 L 123.664063 495.292969 L 123.496094 496.125 L 122.722656 496.945313 L 120.660156 497.648438 L 119.628906 499.730469 L 118.675781 498.910156 L 117.96875 497.691406 L 118.09375 496.4375 L 117.15625 494.691406 L 115.984375 493.691406 L 112.253906 492.070313 L 111.410156 491.984375 L 110.375 492.488281 L 110.242188 494.183594 L 109.421875 495.128906 L 106.824219 495.664063 L 105.398438 494.824219 L 105.628906 491.574219 L 106.074219 490.5625 L 111.738281 488.078125 L 112.199219 488.253906 L 112.445313 488.9375 L 113.574219 489.15625 L 118.144531 485.910156 L 121.425781 483.085938 L 124.375 479.769531 L 125.210938 477.886719 L 124.875 476.421875 L 125.640625 474.519531 L 128.386719 473.238281 L 132.105469 472.640625 L 132.679688 471.785156 L 133.257813 469.527344 L 135.859375 467.5625 L 138.636719 464.640625 L 139.128906 458.542969 L 139.796875 454.753906 L 142.492188 455.105469 L 144.269531 456.015625 L 145.761719 455.429688 L 148.429688 452.488281 L 148.105469 447.519531 L 151.105469 446.613281 L 157.421875 446.269531 L 159.910156 445.683594 L 164.597656 446.761719 L 166.046875 446.148438 L 167.527344 446.515625 L 169.484375 447.285156 L 170.039063 448.109375 L 170.757813 448.421875 L 173.15625 448.464844 L 180.570313 447.503906 L 181.109375 445.632813 L 181.210938 443.15625 L 182.519531 440.25 L 190.867188 432.195313 L 195.792969 425.3125 L 197.929688 424.472656 L 198.285156 423.78125 L 198.070313 423.238281 L 197.8125 423.082031 L 196.09375 424.355469 L 192.90625 427.300781 Z M 190.570313 429.988281 "/>
<path style=" stroke:none;fill-rule:nonzero;fill:#FFC019;fill-opacity:1;" d="M 227.769531 300.460938 L 227.484375 302.257813 L 226.660156 303.878906 L 225.371094 305.167969 L 223.75 305.992188 L 221.953125 306.277344 L 220.15625 305.992188 L 218.535156 305.167969 L 217.25 303.878906 L 216.421875 302.257813 L 216.136719 300.460938 L 216.421875 298.664063 L 217.25 297.042969 L 218.535156 295.757813 L 220.15625 294.929688 L 221.953125 294.644531 L 223.75 294.929688 L 225.371094 295.757813 L 226.660156 297.042969 L 227.484375 298.664063 Z M 227.769531 300.460938 "/>
<path style=" stroke:none;fill-rule:nonzero;fill:#FFC019;fill-opacity:1;" d="M 190.878906 228.175781 L 190.59375 229.972656 L 189.769531 231.59375 L 188.5 232.863281 L 188.34375 232.882813 L 187.070313 232.078125 L 185.40625 232.042969 L 183.445313 233.734375 L 183.269531 233.707031 L 181.648438 232.882813 L 180.359375 231.59375 L 179.535156 229.972656 L 179.25 228.175781 L 179.535156 226.378906 L 180.234375 225.003906 L 184.609375 222.886719 L 185.226563 222.386719 L 186.863281 222.644531 L 188.484375 223.472656 L 189.058594 224.046875 L 188.898438 224.691406 L 189.238281 225.953125 L 190.644531 226.691406 Z M 190.878906 228.175781 "/>
<path style=" stroke:none;fill-rule:nonzero;fill:#FFC019;fill-opacity:1;" d="M 190.453125 242.636719 L 190.167969 244.433594 L 189.34375 246.054688 L 188.058594 247.34375 L 186.433594 248.167969 L 184.636719 248.453125 L 182.839844 248.167969 L 181.21875 247.34375 L 179.933594 246.054688 L 179.109375 244.433594 L 178.824219 242.636719 L 178.90625 242.101563 L 182.921875 243.167969 L 186.398438 241.730469 L 187.519531 239.417969 L 188.546875 238.421875 L 189.34375 239.21875 L 190.167969 240.839844 Z M 190.453125 242.636719 "/>
<path style=" stroke:none;fill-rule:nonzero;fill:#FFC019;fill-opacity:1;" d="M 170.835938 129.933594 L 170.550781 131.730469 L 169.726563 133.351563 L 168.4375 134.640625 L 166.816406 135.464844 L 165.019531 135.75 L 163.222656 135.464844 L 161.601563 134.640625 L 160.316406 133.351563 L 159.492188 131.730469 L 159.265625 130.3125 L 161.488281 129.921875 L 168.160156 129.621094 L 169.804688 128.105469 L 170.371094 127.78125 L 170.550781 128.136719 Z M 170.835938 129.933594 "/>
<path style=" stroke:none;fill-rule:nonzero;fill:#FFC019;fill-opacity:1;" d="M 140.730469 248.316406 L 140.449219 250.113281 L 139.621094 251.734375 L 138.335938 253.023438 L 138.054688 253.164063 L 137.378906 252.511719 L 138.492188 243.769531 L 139.621094 244.898438 L 140.449219 246.519531 Z M 129.582031 246.136719 L 130.210938 244.902344 L 130.664063 246.308594 L 130.519531 246.613281 Z M 130.8125 244.300781 L 131.5 243.613281 L 132.199219 243.253906 L 133.71875 244.574219 L 134.707031 246.3125 L 135.339844 249.003906 L 135.222656 250.96875 L 134.8125 251.347656 L 132.589844 248.835938 L 130.84375 244.566406 Z M 132.613281 243.046875 L 133.121094 242.785156 L 134.917969 242.5 L 136.714844 242.785156 L 137.113281 242.988281 L 136.15625 245.152344 L 135.023438 244.945313 Z M 132.613281 243.046875 "/>
<path style=" stroke:none;fill-rule:nonzero;fill:#FFC019;fill-opacity:1;" d="M 125.457031 490.144531 L 125.226563 488.6875 L 125.507813 486.890625 L 126.335938 485.269531 L 127.621094 483.980469 L 129.242188 483.15625 L 131.039063 482.871094 L 132.835938 483.15625 L 134.457031 483.980469 L 134.808594 484.332031 L 134.507813 484.320313 L 132.167969 484.859375 L 129.414063 488.195313 L 126.714844 489.746094 Z M 125.457031 490.144531 "/>
</g>
</svg>
